<?xml version="1.0" encoding="UTF-8" standalone="no"?>
<svg
   xmlns:dc="http://purl.org/dc/elements/1.1/"
   xmlns:cc="http://creativecommons.org/ns#"
   xmlns:rdf="http://www.w3.org/1999/02/22-rdf-syntax-ns#"
   xmlns:svg="http://www.w3.org/2000/svg"
   xmlns="http://www.w3.org/2000/svg"
   xmlns:sodipodi="http://sodipodi.sourceforge.net/DTD/sodipodi-0.dtd"
   xmlns:inkscape="http://www.inkscape.org/namespaces/inkscape"
   x="0px"
   y="0px"
   width="185px"
   height="188px"
   viewBox="0 0 185 188"
   version="1.1"
   xml:space="preserve"
   style="fill-rule:evenodd;clip-rule:evenodd;stroke-linecap:round;stroke-linejoin:round;stroke-miterlimit:1.41421;"
   id="svg200"
   sodipodi:docname="logos.svg"
   inkscape:version="0.92.1 r15371"><metadata
     id="metadata206"><rdf:RDF><cc:Work
         rdf:about=""><dc:format>image/svg+xml</dc:format><dc:type
           rdf:resource="http://purl.org/dc/dcmitype/StillImage" /></cc:Work></rdf:RDF></metadata><defs
     id="defs204" /><sodipodi:namedview
     pagecolor="#ffffff"
     bordercolor="#666666"
     borderopacity="1"
     objecttolerance="10"
     gridtolerance="10"
     guidetolerance="10"
     inkscape:pageopacity="0"
     inkscape:pageshadow="2"
     inkscape:window-width="1920"
     inkscape:window-height="1017"
     id="namedview202"
     showgrid="false"
     inkscape:zoom="2.5106383"
     inkscape:cx="85.307382"
     inkscape:cy="85.0527"
     inkscape:window-x="-8"
     inkscape:window-y="-8"
     inkscape:window-maximized="1"
     inkscape:current-layer="svg200" /><g
     transform="matrix(0.127596,0,0,0.127596,-56.4185,-229.745)"
     id="g30"><g
       transform="matrix(0.936491,0,0,0.921741,414.486,1810.89)"
       id="g4"><path
         d="M245.854,200L285.566,222.927L285.566,268.782L245.854,291.709L206.143,268.782L206.143,222.927L245.854,200Z"
         style="fill:rgb(17,119,162);stroke-width:11.25px;stroke:rgb(17,119,162);"
         id="path2" /></g><g
       transform="matrix(1,0,0,1,444.726,1837.5)"
       id="g8"><path
         d="M237.028,39.108L228.937,119.56L200,142.191L171.063,119.56C171.063,119.56 162.811,41.99 162.811,39.108C162.811,18.614 179.425,2 199.919,2C220.414,2 237.028,18.614 237.028,39.108Z"
         style="fill:rgb(17,119,162);stroke-width:10.45px;stroke:rgb(17,119,162);"
         id="path6" /></g><g
       transform="matrix(1,0,0,-1,444.726,2239.5)"
       id="g12"><path
         d="M237.028,39.108L228.937,119.56L200,142.191L171.063,119.56C171.063,119.56 162.811,41.99 162.811,39.108C162.811,18.614 179.425,2 199.919,2C220.414,2 237.028,18.614 237.028,39.108Z"
         style="fill:rgb(17,119,162);stroke-width:10.45px;stroke:rgb(17,119,162);"
         id="path10" /></g><g
       transform="matrix(0.5,0.866025,-0.922097,0.532373,724.74,1760.56)"
       id="g16"><path
         d="M237.028,39.108L228.937,119.56L200,142.191L171.063,119.56C171.063,119.56 162.811,41.99 162.811,39.108C162.811,18.614 179.425,2 199.919,2C220.414,2 237.028,18.614 237.028,39.108Z"
         style="fill:rgb(17,119,162);stroke-width:10.12px;stroke:rgb(17,119,162);"
         id="path14" /></g><g
       transform="matrix(-0.5,0.866025,0.922097,0.532373,564.552,1760.56)"
       id="g20"><path
         d="M237.028,39.108L228.937,119.56L200,142.191L171.063,119.56C171.063,119.56 162.811,41.99 162.811,39.108C162.811,18.614 179.425,2 199.919,2C220.414,2 237.028,18.614 237.028,39.108Z"
         style="fill:rgb(17,119,162);stroke-width:10.12px;stroke:rgb(17,119,162);"
         id="path18" /></g><g
       transform="matrix(0.5,-0.866025,-0.922097,-0.532373,724.74,2316.45)"
       id="g24"><path
         d="M237.028,39.108L228.937,119.56L200,142.191L171.063,119.56C171.063,119.56 162.811,41.99 162.811,39.108C162.811,18.614 179.425,2 199.919,2C220.414,2 237.028,18.614 237.028,39.108Z"
         style="fill:rgb(17,119,162);stroke-width:10.12px;stroke:rgb(17,119,162);"
         id="path22" /></g><g
       transform="matrix(-0.5,-0.866025,0.922097,-0.532373,564.713,2316.45)"
       id="g28"><path
         d="M237.028,39.108L228.937,119.56L200,142.191L171.063,119.56C171.063,119.56 162.811,41.99 162.811,39.108C162.811,18.614 179.425,2 199.919,2C220.414,2 237.028,18.614 237.028,39.108Z"
         style="fill:rgb(17,119,162);stroke-width:10.12px;stroke:rgb(17,119,162);"
         id="path26" /></g></g><g
     transform="matrix(0.127596,0,0,0.127596,-56.4185,-103.675)"
     id="g60"><g
       transform="matrix(0.936491,0,0,0.921741,414.486,1810.89)"
       id="g34"><path
         d="M245.854,200L285.566,222.927L285.566,268.782L245.854,291.709L206.143,268.782L206.143,222.927L245.854,200Z"
         style="fill:rgb(17,119,162);stroke-width:11.25px;stroke:rgb(17,119,162);"
         id="path32" /></g><g
       transform="matrix(1,0,0,1,444.726,1837.5)"
       id="g38"><path
         d="M237.028,39.108L228.937,119.56L200,142.191L171.063,119.56C171.063,119.56 162.811,41.99 162.811,39.108C162.811,18.614 179.425,2 199.919,2C220.414,2 237.028,18.614 237.028,39.108Z"
         style="fill:rgb(17,119,162);stroke-width:10.45px;stroke:rgb(17,119,162);"
         id="path36" /></g><g
       transform="matrix(1,0,0,-1,444.726,2239.5)"
       id="g42"><path
         d="M237.028,39.108L228.937,119.56L200,142.191L171.063,119.56C171.063,119.56 162.811,41.99 162.811,39.108C162.811,18.614 179.425,2 199.919,2C220.414,2 237.028,18.614 237.028,39.108Z"
         style="fill:rgb(17,119,162);stroke-width:10.45px;stroke:rgb(17,119,162);"
         id="path40" /></g><g
       transform="matrix(0.5,0.866025,-0.922097,0.532373,724.74,1760.56)"
       id="g46"><path
         d="M237.028,39.108L228.937,119.56L200,142.191L171.063,119.56C171.063,119.56 162.811,41.99 162.811,39.108C162.811,18.614 179.425,2 199.919,2C220.414,2 237.028,18.614 237.028,39.108Z"
         style="fill:rgb(17,119,162);stroke-width:10.12px;stroke:rgb(17,119,162);"
         id="path44" /></g><g
       transform="matrix(-0.5,0.866025,0.922097,0.532373,564.552,1760.56)"
       id="g50"><path
         d="M237.028,39.108L228.937,119.56L200,142.191L171.063,119.56C171.063,119.56 162.811,41.99 162.811,39.108C162.811,18.614 179.425,2 199.919,2C220.414,2 237.028,18.614 237.028,39.108Z"
         style="fill:rgb(17,119,162);stroke-width:10.12px;stroke:rgb(17,119,162);"
         id="path48" /></g><g
       transform="matrix(0.5,-0.866025,-0.922097,-0.532373,724.74,2316.45)"
       id="g54"><path
         d="M237.028,39.108L228.937,119.56L200,142.191L171.063,119.56C171.063,119.56 162.811,41.99 162.811,39.108C162.811,18.614 179.425,2 199.919,2C220.414,2 237.028,18.614 237.028,39.108Z"
         style="fill:rgb(17,119,162);stroke-width:10.12px;stroke:rgb(17,119,162);"
         id="path52" /></g><g
       transform="matrix(-0.5,-0.866025,0.922097,-0.532373,564.713,2316.45)"
       id="g58"><path
         d="M237.028,39.108L228.937,119.56L200,142.191L171.063,119.56C171.063,119.56 162.811,41.99 162.811,39.108C162.811,18.614 179.425,2 199.919,2C220.414,2 237.028,18.614 237.028,39.108Z"
         style="fill:rgb(17,119,162);stroke-width:10.12px;stroke:rgb(17,119,162);"
         id="path56" /></g></g><g
     transform="matrix(0.127596,0,0,0.127596,-56.4185,-167.192)"
     id="g126"><g
       transform="matrix(0.936491,0,0,0.921741,414.486,1810.89)"
       id="g100"><path
         d="M245.854,200L285.566,222.927L285.566,268.782L245.854,291.709L206.143,268.782L206.143,222.927L245.854,200Z"
         style="fill:rgb(68,68,68);stroke-width:11.25px;stroke:rgb(68,68,68);"
         id="path98" /></g><g
       transform="matrix(1,0,0,1,444.726,1837.5)"
       id="g104"><path
         d="M237.028,39.108L228.937,119.56L200,142.191L171.063,119.56C171.063,119.56 162.811,41.99 162.811,39.108C162.811,18.614 179.425,2 199.919,2C220.414,2 237.028,18.614 237.028,39.108Z"
         style="fill:rgb(68,68,68);stroke-width:10.45px;stroke:rgb(68,68,68);"
         id="path102" /></g><g
       transform="matrix(1,0,0,-1,444.726,2239.5)"
       id="g108"><path
         d="M237.028,39.108L228.937,119.56L200,142.191L171.063,119.56C171.063,119.56 162.811,41.99 162.811,39.108C162.811,18.614 179.425,2 199.919,2C220.414,2 237.028,18.614 237.028,39.108Z"
         style="fill:rgb(68,68,68);stroke-width:10.45px;stroke:rgb(68,68,68);"
         id="path106" /></g><g
       transform="matrix(0.5,0.866025,-0.922097,0.532373,724.74,1760.56)"
       id="g112"><path
         d="M237.028,39.108L228.937,119.56L200,142.191L171.063,119.56C171.063,119.56 162.811,41.99 162.811,39.108C162.811,18.614 179.425,2 199.919,2C220.414,2 237.028,18.614 237.028,39.108Z"
         style="fill:rgb(68,68,68);stroke-width:10.12px;stroke:rgb(68,68,68);"
         id="path110" /></g><g
       transform="matrix(-0.5,0.866025,0.922097,0.532373,564.552,1760.56)"
       id="g116"><path
         d="M237.028,39.108L228.937,119.56L200,142.191L171.063,119.56C171.063,119.56 162.811,41.99 162.811,39.108C162.811,18.614 179.425,2 199.919,2C220.414,2 237.028,18.614 237.028,39.108Z"
         style="fill:rgb(68,68,68);stroke-width:10.12px;stroke:rgb(68,68,68);"
         id="path114" /></g><g
       transform="matrix(0.5,-0.866025,-0.922097,-0.532373,724.74,2316.45)"
       id="g120"><path
         d="M237.028,39.108L228.937,119.56L200,142.191L171.063,119.56C171.063,119.56 162.811,41.99 162.811,39.108C162.811,18.614 179.425,2 199.919,2C220.414,2 237.028,18.614 237.028,39.108Z"
         style="fill:rgb(68,68,68);stroke-width:10.12px;stroke:rgb(68,68,68);"
         id="path118" /></g><g
       transform="matrix(-0.5,-0.866025,0.922097,-0.532373,564.713,2316.45)"
       id="g124"><path
         d="M237.028,39.108L228.937,119.56L200,142.191L171.063,119.56C171.063,119.56 162.811,41.99 162.811,39.108C162.811,18.614 179.425,2 199.919,2C220.414,2 237.028,18.614 237.028,39.108Z"
         style="fill:rgb(68,68,68);stroke-width:10.12px;stroke:rgb(68,68,68);"
         id="path122" /></g></g><g
     id="g4637"><path
       d="M 68.172163,14.332859 C 66.750409,13.066874 65.086503,12.490526 63.0884,12.490526 58.93784,12.490526 55.719068,15.797096 55.719068,20.481521 55.719068,25.386857 59.247964,27.872095 62.911389,27.872095 65.818622,27.872095 68.415731,26.896409 68.415731,26.896409 L 68.393073,20.36965 H 65.196958 L 65.596296,22.27854 V 25.408098 C 65.596296,25.408098 64.487497,25.696981 63.310726,25.696981 61.0025,25.696981 58.715514,23.721535 58.715514,20.259195 58.715514,17.285406 60.603162,14.688297 63.111058,14.688297 64.420941,14.688297 65.752066,15.19809 66.995393,16.464074 Z"
       style="fill:#444444;fill-rule:nonzero;stroke-width:0.141609"
       id="path164"
       inkscape:connector-curvature="0" /><path
       d="M 75.606636,16.042079 C 71.900728,16.042079 70.32462,19.015868 70.32462,22.257298 70.32462,25.120632 72.07774,27.872095 75.385726,27.872095 78.270301,27.872095 80.046078,26.295987 80.046078,26.295987 L 79.646741,24.033075 C 79.646741,24.033075 77.849722,25.607767 75.918176,25.607767 74.165056,25.607767 73.25451,24.187429 73.142639,22.390411 H 79.291302 L 79.825168,21.856545 C 79.779853,20.192639 79.490971,16.042079 75.606636,16.042079 Z M 75.340411,17.928311 C 76.517182,17.928311 76.893862,19.371307 76.961834,20.436206 H 73.25451 C 73.498078,19.038526 74.119741,17.928311 75.340411,17.928311 Z"
       style="fill:#444444;fill-rule:nonzero;stroke-width:0.141609"
       id="path166"
       inkscape:connector-curvature="0" /><path
       d="M 92.343404,21.723432 C 92.343404,17.795199 90.145632,16.042079 87.238399,16.042079 83.464519,16.042079 81.355961,18.8162 81.355961,22.124186 81.355961,24.920964 83.109081,27.872095 86.483623,27.872095 90.190947,27.872095 92.343404,25.031419 92.343404,21.723432 Z M 84.285851,21.945758 C 84.285851,19.726745 85.240296,18.017525 86.839062,18.017525 88.436411,18.017525 89.390856,19.726745 89.390856,21.945758 89.390856,24.166188 88.436411,25.89665 86.839062,25.89665 85.240296,25.89665 84.285851,24.166188 84.285851,21.945758 Z"
       style="fill:#444444;fill-rule:nonzero;stroke-width:0.141609"
       id="path168"
       inkscape:connector-curvature="0" /><path
       d="M 107.63718,12.75675 H 104.77384 L 105.08397,15.043736 V 22.700534 L 104.23998,21.324095 96.959857,12.75675 H 94.740844 L 95.050968,15.043736 V 27.584629 H 97.847745 L 97.604178,25.675739 V 17.772541 L 98.469409,19.171638 105.9492,27.584629 H 107.79153 L 107.63718,25.675739 Z"
       style="fill:#444444;fill-rule:nonzero;stroke-width:0.141609"
       id="path170"
       inkscape:connector-curvature="0" /><path
       d="M 121.30952,21.723432 C 121.30952,17.795199 119.11175,16.042079 116.20452,16.042079 112.43064,16.042079 110.32208,18.8162 110.32208,22.124186 110.32208,24.920964 112.07662,27.872095 115.44974,27.872095 119.15707,27.872095 121.30952,25.031419 121.30952,21.723432 Z M 113.25197,21.945758 C 113.25197,19.726745 114.20642,18.017525 115.80518,18.017525 117.40253,18.017525 118.35698,19.726745 118.35698,21.945758 118.35698,24.166188 117.40253,25.89665 115.80518,25.89665 114.20642,25.89665 113.25197,24.166188 113.25197,21.945758 Z"
       style="fill:#444444;fill-rule:nonzero;stroke-width:0.141609"
       id="path172"
       inkscape:connector-curvature="0" /><path
       d="M 132.71896,10.558979 129.65596,10.89176 129.96608,13.134846 V 16.152534 C 129.96608,16.152534 129.05554,16.042079 128.67886,16.042079 125.21652,16.042079 122.81908,18.882756 122.81908,22.190742 122.81908,25.875408 124.88374,27.850854 127.25852,27.850854 128.25686,27.850854 129.61064,27.250432 130.29886,26.495656 130.56509,27.339645 131.05364,27.805539 131.05364,27.805539 L 133.85042,27.495415 C 133.85042,27.495415 132.71896,26.162874 132.71896,24.83175 Z M 127.96798,25.786195 C 126.76997,25.786195 125.77162,24.409755 125.77162,21.991073 125.77162,19.770644 126.92574,18.017525 128.32342,18.017525 129.18865,18.017525 129.96608,18.150637 129.96608,18.150637 V 24.742536 C 129.27786,25.341542 128.54574,25.786195 127.96798,25.786195 Z"
       style="fill:#444444;fill-rule:nonzero;stroke-width:0.141609"
       id="path174"
       inkscape:connector-curvature="0" /><path
       d="M 140.62074,16.042079 C 136.91342,16.042079 135.33731,19.015868 135.33731,22.257298 135.33731,25.120632 137.09185,27.872095 140.39842,27.872095 143.28441,27.872095 145.06019,26.295987 145.06019,26.295987 L 144.65943,24.033075 C 144.65943,24.033075 142.86241,25.607767 140.93087,25.607767 139.17775,25.607767 138.2672,24.187429 138.15675,22.390411 H 144.30541 L 144.83786,21.856545 C 144.79396,20.192639 144.50508,16.042079 140.62074,16.042079 Z M 140.35452,17.928311 C 141.52987,17.928311 141.90797,19.371307 141.97453,20.436206 H 138.2672 C 138.51219,19.038526 139.13385,17.928311 140.35452,17.928311 Z"
       style="fill:#444444;fill-rule:nonzero;stroke-width:0.141609"
       id="path176"
       inkscape:connector-curvature="0" /><path
       d="M 64.73906,44.687027 Q 64.73906,46.587027 63.35906,47.647027 61.97906,48.707027 59.63906,48.707027 58.43906,48.707027 57.41906,48.527027 56.39906,48.347027 55.71906,48.027027 V 46.307027 Q 56.43906,46.627027 57.49906,46.887027 58.57906,47.147027 59.71906,47.147027 61.29906,47.147027 62.11906,46.527027 62.93906,45.907027 62.93906,44.847027 62.93906,44.147027 62.63906,43.667027 62.33906,43.187027 61.59906,42.787027 60.85906,42.387027 59.57906,41.907027 57.73906,41.247027 56.81906,40.287027 55.89906,39.327027 55.89906,37.667027 55.89906,36.547027 56.47906,35.727027 57.05907,34.907027 58.07906,34.467027 59.09906,34.027027 60.45906,34.027027 61.61906,34.027027 62.59906,34.247027 63.57906,34.467027 64.39906,34.827027 L 63.83906,36.367027 Q 63.09906,36.047027 62.21906,35.827027 61.33906,35.607027 60.41906,35.607027 59.07906,35.607027 58.39906,36.187027 57.71906,36.747027 57.71906,37.687027 57.71906,38.407027 58.01906,38.887027 58.31906,39.367027 58.99906,39.767027 59.67906,40.147027 60.83906,40.567027 62.09906,41.027027 62.95906,41.567027 63.83906,42.087027 64.27906,42.827027 64.73906,43.567027 64.73906,44.687027 Z"
       style="font-style:normal;font-variant:normal;font-weight:normal;font-stretch:normal;font-size:20px;line-height:1.25;font-family:'Noto Sans';-inkscape-font-specification:'Noto Sans';letter-spacing:0px;word-spacing:0px;fill:#444444;fill-opacity:1;stroke:none"
       id="path4855"
       inkscape:connector-curvature="0" /><path
       d="M 76.37469,37.787027 V 48.507027 H 74.93469 L 74.67469,47.087027 H 74.59469 Q 74.07469,47.927027 73.15469,48.327027 72.23469,48.707027 71.19469,48.707027 69.25469,48.707027 68.27469,47.787027 67.29469,46.847027 67.29469,44.807027 V 37.787027 H 69.07469 V 44.687027 Q 69.07469,47.247027 71.45469,47.247027 73.23469,47.247027 73.91469,46.247027 74.61469,45.247027 74.61469,43.367027 V 37.787027 Z"
       style="font-style:normal;font-variant:normal;font-weight:normal;font-stretch:normal;font-size:20px;line-height:1.25;font-family:'Noto Sans';-inkscape-font-specification:'Noto Sans';letter-spacing:0px;word-spacing:0px;fill:#444444;fill-opacity:1;stroke:none"
       id="path4857"
       inkscape:connector-curvature="0" /><path
       d="M 91.51844,37.587027 Q 93.33844,37.587027 94.23844,38.527027 95.13844,39.467027 95.13844,41.527027 V 48.507027 H 93.39844 V 41.607027 Q 93.39844,39.067027 91.21844,39.067027 89.65844,39.067027 88.97844,39.967027 88.31844,40.867027 88.31844,42.587027 V 48.507027 H 86.57844 V 41.607027 Q 86.57844,39.067027 84.37844,39.067027 82.75844,39.067027 82.13844,40.067027 81.51844,41.067027 81.51844,42.947027 V 48.507027 H 79.75844 V 37.787027 H 81.17844 L 81.43844,39.247027 H 81.53844 Q 82.03844,38.407027 82.87844,38.007027 83.73844,37.587027 84.69844,37.587027 87.21844,37.587027 87.97844,39.387027 H 88.07844 Q 88.61844,38.467027 89.53844,38.027027 90.45844,37.587027 91.51844,37.587027 Z"
       style="font-style:normal;font-variant:normal;font-weight:normal;font-stretch:normal;font-size:20px;line-height:1.25;font-family:'Noto Sans';-inkscape-font-specification:'Noto Sans';letter-spacing:0px;word-spacing:0px;fill:#444444;fill-opacity:1;stroke:none"
       id="path4859"
       inkscape:connector-curvature="0" /><path
       d="M 110.19031,37.587027 Q 112.01031,37.587027 112.91031,38.527027 113.81031,39.467027 113.81031,41.527027 V 48.507027 H 112.07031 V 41.607027 Q 112.07031,39.067027 109.89031,39.067027 108.33031,39.067027 107.65032,39.967027 106.99031,40.867027 106.99031,42.587027 V 48.507027 H 105.25031 V 41.607027 Q 105.25031,39.067027 103.05031,39.067027 101.43031,39.067027 100.81031,40.067027 100.19031,41.067027 100.19031,42.947027 V 48.507027 H 98.43031 V 37.787027 H 99.85031 L 100.11031,39.247027 H 100.21031 Q 100.71031,38.407027 101.55031,38.007027 102.41031,37.587027 103.37031,37.587027 105.89031,37.587027 106.65031,39.387027 H 106.75031 Q 107.29031,38.467027 108.21031,38.027027 109.13031,37.587027 110.19031,37.587027 Z"
       style="font-style:normal;font-variant:normal;font-weight:normal;font-stretch:normal;font-size:20px;line-height:1.25;font-family:'Noto Sans';-inkscape-font-specification:'Noto Sans';letter-spacing:0px;word-spacing:0px;fill:#444444;fill-opacity:1;stroke:none"
       id="path4861"
       inkscape:connector-curvature="0" /><path
       d="M 118.00219,33.767027 Q 118.40219,33.767027 118.70219,34.047027 119.02219,34.307027 119.02219,34.887027 119.02219,35.467027 118.70219,35.747027 118.40219,36.007027 118.00219,36.007027 117.56219,36.007027 117.26219,35.747027 116.96219,35.467027 116.96219,34.887027 116.96219,34.307027 117.26219,34.047027 117.56219,33.767027 118.00219,33.767027 Z M 118.86219,37.787027 V 48.507027 H 117.10219 V 37.787027 Z"
       style="font-style:normal;font-variant:normal;font-weight:normal;font-stretch:normal;font-size:20px;line-height:1.25;font-family:'Noto Sans';-inkscape-font-specification:'Noto Sans';letter-spacing:0px;word-spacing:0px;fill:#444444;fill-opacity:1;stroke:none"
       id="path4863"
       inkscape:connector-curvature="0" /><path
       d="M 125.83844,47.267027 Q 126.23844,47.267027 126.65844,47.207027 127.07844,47.147027 127.33844,47.047027 V 48.387027 Q 127.05844,48.527027 126.53844,48.607027 126.01844,48.707027 125.53844,48.707027 124.69844,48.707027 123.97844,48.427027 123.27844,48.127027 122.83844,47.407027 122.39844,46.687027 122.39844,45.387027 V 39.147027 H 120.87844 V 38.307027 L 122.41844,37.607027 123.11844,35.327027 H 124.15844 V 37.787027 H 127.25844 V 39.147027 H 124.15844 V 45.347027 Q 124.15844,46.327027 124.61844,46.807027 125.09844,47.267027 125.83844,47.267027 Z"
       style="font-style:normal;font-variant:normal;font-weight:normal;font-stretch:normal;font-size:20px;line-height:1.25;font-family:'Noto Sans';-inkscape-font-specification:'Noto Sans';letter-spacing:0px;word-spacing:0px;fill:#444444;fill-opacity:1;stroke:none"
       id="path4865"
       inkscape:connector-curvature="0" /><path
       d="M 143.38031,48.507027 H 133.94031 V 47.047027 L 137.68031,43.267027 Q 138.74031,42.187027 139.48031,41.347027 140.24031,40.507027 140.62031,39.707027 141.00031,38.907027 141.00031,37.927027 141.00031,36.747027 140.30031,36.147027 139.60031,35.527027 138.48031,35.527027 137.42031,35.527027 136.64032,35.887027 135.86031,36.247027 135.04031,36.887027 L 134.10031,35.707027 Q 134.94031,35.007027 136.02032,34.527027 137.12031,34.027027 138.48031,34.027027 140.48031,34.027027 141.64032,35.047027 142.80031,36.067027 142.80031,37.827027 142.80031,38.947027 142.34032,39.927027 141.88031,40.907027 141.06031,41.867027 140.24031,42.827027 139.14032,43.887027 L 136.16031,46.827027 V 46.907027 H 143.38031 Z"
       style="font-style:normal;font-variant:normal;font-weight:normal;font-stretch:normal;font-size:20px;line-height:1.25;font-family:'Noto Sans';-inkscape-font-specification:'Noto Sans';letter-spacing:0px;word-spacing:0px;fill:#444444;fill-opacity:1;stroke:none"
       id="path4867"
       inkscape:connector-curvature="0" /><path
       d="M 154.92469,41.347027 Q 154.92469,43.667027 154.44469,45.307027 153.96469,46.947027 152.90469,47.827027 151.86469,48.707027 150.16469,48.707027 147.74469,48.707027 146.58469,46.767027 145.44469,44.807027 145.44469,41.347027 145.44469,39.027027 145.90469,37.387027 146.38469,35.747027 147.42469,34.887027 148.46469,34.007027 150.16469,34.007027 152.56469,34.007027 153.74469,35.947027 154.92469,37.867027 154.92469,41.347027 Z M 147.20469,41.347027 Q 147.20469,44.287027 147.86469,45.747027 148.54469,47.207027 150.16469,47.207027 151.76469,47.207027 152.44469,45.767027 153.14469,44.307027 153.14469,41.347027 153.14469,38.427027 152.44469,36.967027 151.76469,35.507027 150.16469,35.507027 148.54469,35.507027 147.86469,36.967027 147.20469,38.427027 147.20469,41.347027 Z"
       style="font-style:normal;font-variant:normal;font-weight:normal;font-stretch:normal;font-size:20px;line-height:1.25;font-family:'Noto Sans';-inkscape-font-specification:'Noto Sans';letter-spacing:0px;word-spacing:0px;fill:#444444;fill-opacity:1;stroke:none"
       id="path4869"
       inkscape:connector-curvature="0" /><path
       d="M 163.01,48.507027 H 161.29 V 38.527027 Q 161.29,37.667027 161.31,37.147027 161.33,36.627027 161.37,36.067027 161.05,36.387027 160.77,36.607027 160.51,36.827027 160.13,37.167027 L 158.61,38.407027 157.69,37.227027 161.55,34.227027 H 163.01 Z"
       style="font-style:normal;font-variant:normal;font-weight:normal;font-stretch:normal;font-size:20px;line-height:1.25;font-family:'Noto Sans';-inkscape-font-specification:'Noto Sans';letter-spacing:0px;word-spacing:0px;fill:#444444;fill-opacity:1;stroke:none"
       id="path4871"
       inkscape:connector-curvature="0" /><path
       d="M 177.75531,40.327027 Q 177.75531,41.867027 177.47531,43.367027 177.21532,44.847027 176.49531,46.067027 175.79531,47.267027 174.49531,47.987027 173.21532,48.707027 171.19531,48.707027 170.79531,48.707027 170.25531,48.647027 169.71532,48.607027 169.39532,48.507027 V 47.007027 Q 170.17531,47.267027 171.15531,47.267027 172.55531,47.267027 173.45532,46.807027 174.37531,46.347027 174.91531,45.567027 175.45532,44.767027 175.69531,43.727027 175.93531,42.667027 175.97531,41.507027 H 175.85531 Q 175.39532,42.187027 174.57532,42.687027 173.75531,43.167027 172.45532,43.167027 170.61531,43.167027 169.47531,42.047027 168.35531,40.907027 168.35531,38.847027 168.35531,37.347027 168.91531,36.267027 169.47531,35.187027 170.49531,34.607027 171.53531,34.027027 172.91531,34.027027 174.27532,34.027027 175.37531,34.727027 176.47531,35.407027 177.11531,36.807027 177.75531,38.187027 177.75531,40.327027 Z M 172.91531,35.507027 Q 171.67531,35.507027 170.87531,36.327027 170.09531,37.147027 170.09531,38.827027 170.09531,40.207027 170.75531,41.007027 171.43531,41.787027 172.83532,41.787027 173.79531,41.787027 174.49531,41.407027 175.19531,41.007027 175.57532,40.407027 175.97531,39.807027 175.97531,39.167027 175.97531,38.307027 175.63531,37.467027 175.29531,36.627027 174.61531,36.067027 173.93531,35.507027 172.91531,35.507027 Z"
       style="font-style:normal;font-variant:normal;font-weight:normal;font-stretch:normal;font-size:20px;line-height:1.25;font-family:'Noto Sans';-inkscape-font-specification:'Noto Sans';letter-spacing:0px;word-spacing:0px;fill:#444444;fill-opacity:1;stroke:none"
       id="path4873"
       inkscape:connector-curvature="0" /></g><g
     id="g4618"><path
       d="M 68.180202,76.802929 C 66.757685,75.536265 65.092886,74.959608 63.093711,74.959608 58.940924,74.959608 55.720423,78.267952 55.720423,82.954892 55.720423,87.86286 59.251214,90.349432 62.916605,90.349432 65.825398,90.349432 68.423901,89.373223 68.423901,89.373223 L 68.401231,82.842961 H 65.203401 L 65.602952,84.752875 V 87.884113 C 65.602952,87.884113 64.493559,88.173151 63.316156,88.173151 61.006691,88.173151 58.718478,86.196645 58.718478,82.732447 58.718478,79.757062 60.607139,77.158559 63.11638,77.158559 64.426967,77.158559 65.758806,77.668625 67.0028,78.935289 Z"
       style="fill:#444444;fill-rule:nonzero;stroke-width:0.14168499"
       id="path62"
       inkscape:connector-curvature="0" /><path
       d="M 75.618665,78.513067 C 71.910768,78.513067 70.333814,81.488452 70.333814,84.731622 70.333814,87.596493 72.087875,90.349432 75.397636,90.349432 78.28376,90.349432 80.06049,88.772478 80.06049,88.772478 L 79.660938,86.508352 C 79.660938,86.508352 77.862955,88.083889 75.930372,88.083889 74.176312,88.083889 73.265277,86.662789 73.153346,84.864806 H 79.305309 L 79.839461,84.330653 C 79.794122,82.665855 79.505084,78.513067 75.618665,78.513067 Z M 75.352297,80.400312 C 76.529699,80.400312 76.906582,81.844082 76.97459,82.909553 H 73.265277 C 73.508975,81.511122 74.130972,80.400312 75.352297,80.400312 Z"
       style="fill:#444444;fill-rule:nonzero;stroke-width:0.14168499"
       id="path64"
       inkscape:connector-curvature="0" /><path
       d="M 92.364415,84.19747 C 92.364415,80.267128 90.165464,78.513067 87.256671,78.513067 83.480766,78.513067 81.371076,81.288676 81.371076,84.598438 81.371076,87.396717 83.125136,90.349432 86.50149,90.349432 90.210803,90.349432 92.364415,87.507231 92.364415,84.19747 Z M 84.302539,84.419915 C 84.302539,82.199711 85.257495,80.489573 86.857119,80.489573 88.455326,80.489573 89.410283,82.199711 89.410283,84.419915 89.410283,86.641536 88.455326,88.372926 86.857119,88.372926 85.257495,88.372926 84.302539,86.641536 84.302539,84.419915 Z"
       style="fill:#444444;fill-rule:nonzero;stroke-width:0.14168499"
       id="path66"
       inkscape:connector-curvature="0" /><path
       d="M 107.6664,75.225975 H 104.80152 L 105.11181,77.514188 V 85.175096 L 104.26737,83.797918 96.983346,75.225975 H 94.763142 L 95.073432,77.514188 V 90.061812 H 97.871711 L 97.628013,88.151898 V 80.244458 L 98.493708,81.644306 105.97751,90.061812 H 107.82083 L 107.6664,88.151898 Z"
       style="fill:#444444;fill-rule:nonzero;stroke-width:0.14168499"
       id="path68"
       inkscape:connector-curvature="0" /><path
       d="M 121.34608,84.19747 C 121.34608,80.267128 119.14713,78.513067 116.23834,78.513067 112.46243,78.513067 110.35274,81.288676 110.35274,84.598438 110.35274,87.396717 112.10822,90.349432 115.48316,90.349432 119.19247,90.349432 121.34608,87.507231 121.34608,84.19747 Z M 113.28421,84.419915 C 113.28421,82.199711 114.23916,80.489573 115.83879,80.489573 117.43699,80.489573 118.39195,82.199711 118.39195,84.419915 118.39195,86.641536 117.43699,88.372926 115.83879,88.372926 114.23916,88.372926 113.28421,86.641536 113.28421,84.419915 Z"
       style="fill:#444444;fill-rule:nonzero;stroke-width:0.14168499"
       id="path70"
       inkscape:connector-curvature="0" /><path
       d="M 132.76164,73.027024 129.697,73.359984 130.00729,75.604274 V 78.623582 C 130.00729,78.623582 129.09625,78.513067 128.71937,78.513067 125.25517,78.513067 122.85644,81.355268 122.85644,84.66503 122.85644,88.351674 124.92221,90.328179 127.29827,90.328179 128.29715,90.328179 129.65166,89.727435 130.34025,88.972254 130.60661,89.816697 131.09543,90.28284 131.09543,90.28284 L 133.89371,89.97255 C 133.89371,89.97255 132.76164,88.639294 132.76164,87.307455 Z M 128.00811,88.262412 C 126.80946,88.262412 125.81058,86.885234 125.81058,84.465254 125.81058,82.243633 126.96531,80.489573 128.36374,80.489573 129.22944,80.489573 130.00729,80.622757 130.00729,80.622757 V 87.218194 C 129.3187,87.817521 128.58619,88.262412 128.00811,88.262412 Z"
       style="fill:#444444;fill-rule:nonzero;stroke-width:0.14168499"
       id="path72"
       inkscape:connector-curvature="0" /><path
       d="M 140.66767,78.513067 C 136.95835,78.513067 135.3814,81.488452 135.3814,84.731622 135.3814,87.596493 137.13688,90.349432 140.44522,90.349432 143.33276,90.349432 145.10949,88.772478 145.10949,88.772478 L 144.70852,86.508352 C 144.70852,86.508352 142.91054,88.083889 140.97796,88.083889 139.2239,88.083889 138.31286,86.662789 138.20235,84.864806 H 144.35431 L 144.88704,84.330653 C 144.84312,82.665855 144.55408,78.513067 140.66767,78.513067 Z M 140.4013,80.400312 C 141.57728,80.400312 141.95558,81.844082 142.02217,82.909553 H 138.31286 C 138.55798,81.511122 139.17997,80.400312 140.4013,80.400312 Z"
       style="fill:#444444;fill-rule:nonzero;stroke-width:0.14168499"
       id="path74"
       inkscape:connector-curvature="0" /><path
       d="M 64.74042,107.17555 Q 64.74042,109.07555 63.36042,110.13555 61.98042,111.19555 59.64042,111.19555 58.44042,111.19555 57.42042,111.01555 56.40042,110.83555 55.72042,110.51555 V 108.79555 Q 56.44042,109.11555 57.50042,109.37555 58.58042,109.63555 59.72042,109.63555 61.30042,109.63555 62.12042,109.01555 62.94042,108.39555 62.94042,107.33555 62.94042,106.63555 62.64042,106.15555 62.34042,105.67555 61.60042,105.27555 60.86042,104.87555 59.58042,104.39555 57.74042,103.73555 56.82042,102.77555 55.90042,101.81555 55.90042,100.15555 55.90042,99.035546 56.48042,98.215546 57.06043,97.395546 58.08042,96.955546 59.10042,96.515546 60.46042,96.515546 61.62042,96.515546 62.60042,96.735546 63.58042,96.955546 64.40042,97.315546 L 63.84042,98.855546 Q 63.10042,98.535546 62.22042,98.315546 61.34042,98.095546 60.42042,98.095546 59.08042,98.095546 58.40042,98.675546 57.72042,99.235546 57.72042,100.17555 57.72042,100.89555 58.02042,101.37555 58.32042,101.85555 59.00042,102.25555 59.68042,102.63555 60.84042,103.05555 62.10042,103.51555 62.96042,104.05555 63.84042,104.57555 64.28042,105.31555 64.74042,106.05555 64.74042,107.17555 Z"
       style="font-style:normal;font-variant:normal;font-weight:normal;font-stretch:normal;font-size:20px;line-height:1.25;font-family:'Noto Sans';-inkscape-font-specification:'Noto Sans';letter-spacing:0px;word-spacing:0px;clip-rule:evenodd;fill:#444444;fill-opacity:1;fill-rule:evenodd;stroke:none;stroke-linecap:round;stroke-linejoin:round;stroke-miterlimit:1.41420996"
       id="path4886"
       inkscape:connector-curvature="0" /><path
       d="M 76.37605,100.27555 V 110.99555 H 74.93605 L 74.67605,109.57555 H 74.59605 Q 74.07605,110.41555 73.15605,110.81555 72.23605,111.19555 71.19605,111.19555 69.25605,111.19555 68.27605,110.27555 67.29605,109.33555 67.29605,107.29555 V 100.27555 H 69.07605 V 107.17555 Q 69.07605,109.73555 71.45605,109.73555 73.23605,109.73555 73.91605,108.73555 74.61605,107.73555 74.61605,105.85555 V 100.27555 Z"
       style="font-style:normal;font-variant:normal;font-weight:normal;font-stretch:normal;font-size:20px;line-height:1.25;font-family:'Noto Sans';-inkscape-font-specification:'Noto Sans';letter-spacing:0px;word-spacing:0px;clip-rule:evenodd;fill:#444444;fill-opacity:1;fill-rule:evenodd;stroke:none;stroke-linecap:round;stroke-linejoin:round;stroke-miterlimit:1.41420996"
       id="path4888"
       inkscape:connector-curvature="0" /><path
       d="M 91.5198,100.07555 Q 93.3398,100.07555 94.2398,101.01555 95.1398,101.95555 95.1398,104.01555 V 110.99555 H 93.3998 V 104.09555 Q 93.3998,101.55555 91.2198,101.55555 89.6598,101.55555 88.9798,102.45555 88.3198,103.35555 88.3198,105.07555 V 110.99555 H 86.5798 V 104.09555 Q 86.5798,101.55555 84.3798,101.55555 82.7598,101.55555 82.1398,102.55555 81.5198,103.55555 81.5198,105.43555 V 110.99555 H 79.7598 V 100.27555 H 81.1798 L 81.4398,101.73555 H 81.5398 Q 82.0398,100.89555 82.8798,100.49555 83.7398,100.07555 84.6998,100.07555 87.2198,100.07555 87.9798,101.87555 H 88.0798 Q 88.6198,100.95555 89.5398,100.51555 90.4598,100.07555 91.5198,100.07555 Z"
       style="font-style:normal;font-variant:normal;font-weight:normal;font-stretch:normal;font-size:20px;line-height:1.25;font-family:'Noto Sans';-inkscape-font-specification:'Noto Sans';letter-spacing:0px;word-spacing:0px;clip-rule:evenodd;fill:#444444;fill-opacity:1;fill-rule:evenodd;stroke:none;stroke-linecap:round;stroke-linejoin:round;stroke-miterlimit:1.41420996"
       id="path4890"
       inkscape:connector-curvature="0" /><path
       d="M 110.19167,100.07555 Q 112.01167,100.07555 112.91167,101.01555 113.81167,101.95555 113.81167,104.01555 V 110.99555 H 112.07167 V 104.09555 Q 112.07167,101.55555 109.89167,101.55555 108.33167,101.55555 107.65168,102.45555 106.99167,103.35555 106.99167,105.07555 V 110.99555 H 105.25167 V 104.09555 Q 105.25167,101.55555 103.05167,101.55555 101.43167,101.55555 100.81167,102.55555 100.19167,103.55555 100.19167,105.43555 V 110.99555 H 98.43167 V 100.27555 H 99.85167 L 100.11167,101.73555 H 100.21167 Q 100.71167,100.89555 101.55167,100.49555 102.41167,100.07555 103.37167,100.07555 105.89167,100.07555 106.65167,101.87555 H 106.75167 Q 107.29167,100.95555 108.21167,100.51555 109.13167,100.07555 110.19167,100.07555 Z"
       style="font-style:normal;font-variant:normal;font-weight:normal;font-stretch:normal;font-size:20px;line-height:1.25;font-family:'Noto Sans';-inkscape-font-specification:'Noto Sans';letter-spacing:0px;word-spacing:0px;clip-rule:evenodd;fill:#444444;fill-opacity:1;fill-rule:evenodd;stroke:none;stroke-linecap:round;stroke-linejoin:round;stroke-miterlimit:1.41420996"
       id="path4892"
       inkscape:connector-curvature="0" /><path
       d="M 118.00355,96.255546 Q 118.40355,96.255546 118.70355,96.535546 119.02355,96.795546 119.02355,97.375546 119.02355,97.955546 118.70355,98.235546 118.40355,98.495546 118.00355,98.495546 117.56355,98.495546 117.26355,98.235546 116.96355,97.955546 116.96355,97.375546 116.96355,96.795546 117.26355,96.535546 117.56355,96.255546 118.00355,96.255546 Z M 118.86355,100.27555 V 110.99555 H 117.10355 V 100.27555 Z"
       style="font-style:normal;font-variant:normal;font-weight:normal;font-stretch:normal;font-size:20px;line-height:1.25;font-family:'Noto Sans';-inkscape-font-specification:'Noto Sans';letter-spacing:0px;word-spacing:0px;clip-rule:evenodd;fill:#444444;fill-opacity:1;fill-rule:evenodd;stroke:none;stroke-linecap:round;stroke-linejoin:round;stroke-miterlimit:1.41420996"
       id="path4894"
       inkscape:connector-curvature="0" /><path
       d="M 125.8398,109.75555 Q 126.2398,109.75555 126.6598,109.69555 127.0798,109.63555 127.3398,109.53555 V 110.87555 Q 127.0598,111.01555 126.5398,111.09555 126.0198,111.19555 125.5398,111.19555 124.6998,111.19555 123.9798,110.91555 123.2798,110.61555 122.8398,109.89555 122.3998,109.17555 122.3998,107.87555 V 101.63555 H 120.8798 V 100.79555 L 122.4198,100.09555 123.1198,97.815546 H 124.1598 V 100.27555 H 127.2598 V 101.63555 H 124.1598 V 107.83555 Q 124.1598,108.81555 124.6198,109.29555 125.0998,109.75555 125.8398,109.75555 Z"
       style="font-style:normal;font-variant:normal;font-weight:normal;font-stretch:normal;font-size:20px;line-height:1.25;font-family:'Noto Sans';-inkscape-font-specification:'Noto Sans';letter-spacing:0px;word-spacing:0px;clip-rule:evenodd;fill:#444444;fill-opacity:1;fill-rule:evenodd;stroke:none;stroke-linecap:round;stroke-linejoin:round;stroke-miterlimit:1.41420996"
       id="path4896"
       inkscape:connector-curvature="0" /><path
       d="M 143.38167,110.99555 H 133.94167 V 109.53555 L 137.68167,105.75555 Q 138.74167,104.67555 139.48167,103.83555 140.24167,102.99555 140.62167,102.19555 141.00167,101.39555 141.00167,100.41555 141.00167,99.235546 140.30167,98.635546 139.60167,98.015546 138.48167,98.015546 137.42167,98.015546 136.64168,98.375546 135.86167,98.735546 135.04167,99.375546 L 134.10167,98.195546 Q 134.94167,97.495546 136.02168,97.015546 137.12167,96.515546 138.48167,96.515546 140.48167,96.515546 141.64168,97.535546 142.80167,98.555546 142.80167,100.31555 142.80167,101.43555 142.34168,102.41555 141.88167,103.39555 141.06167,104.35555 140.24167,105.31555 139.14168,106.37555 L 136.16167,109.31555 V 109.39555 H 143.38167 Z"
       style="font-style:normal;font-variant:normal;font-weight:normal;font-stretch:normal;font-size:20px;line-height:1.25;font-family:'Noto Sans';-inkscape-font-specification:'Noto Sans';letter-spacing:0px;word-spacing:0px;clip-rule:evenodd;fill:#444444;fill-opacity:1;fill-rule:evenodd;stroke:none;stroke-linecap:round;stroke-linejoin:round;stroke-miterlimit:1.41420996"
       id="path4898"
       inkscape:connector-curvature="0" /><path
       d="M 154.92605,103.83555 Q 154.92605,106.15555 154.44605,107.79555 153.96605,109.43555 152.90605,110.31555 151.86605,111.19555 150.16605,111.19555 147.74605,111.19555 146.58605,109.25555 145.44605,107.29555 145.44605,103.83555 145.44605,101.51555 145.90605,99.875546 146.38605,98.235546 147.42605,97.375546 148.46605,96.495546 150.16605,96.495546 152.56605,96.495546 153.74605,98.435546 154.92605,100.35555 154.92605,103.83555 Z M 147.20605,103.83555 Q 147.20605,106.77555 147.86605,108.23555 148.54605,109.69555 150.16605,109.69555 151.76605,109.69555 152.44605,108.25555 153.14605,106.79555 153.14605,103.83555 153.14605,100.91555 152.44605,99.455546 151.76605,97.995546 150.16605,97.995546 148.54605,97.995546 147.86605,99.455546 147.20605,100.91555 147.20605,103.83555 Z"
       style="font-style:normal;font-variant:normal;font-weight:normal;font-stretch:normal;font-size:20px;line-height:1.25;font-family:'Noto Sans';-inkscape-font-specification:'Noto Sans';letter-spacing:0px;word-spacing:0px;clip-rule:evenodd;fill:#444444;fill-opacity:1;fill-rule:evenodd;stroke:none;stroke-linecap:round;stroke-linejoin:round;stroke-miterlimit:1.41420996"
       id="path4900"
       inkscape:connector-curvature="0" /><path
       d="M 163.01136,110.99555 H 161.29136 V 101.01555 Q 161.29136,100.15555 161.31136,99.635546 161.33136,99.115546 161.37136,98.555546 161.05136,98.875546 160.77136,99.095546 160.51136,99.315546 160.13136,99.655546 L 158.61136,100.89555 157.69136,99.715546 161.55136,96.715546 H 163.01136 Z"
       style="font-style:normal;font-variant:normal;font-weight:normal;font-stretch:normal;font-size:20px;line-height:1.25;font-family:'Noto Sans';-inkscape-font-specification:'Noto Sans';letter-spacing:0px;word-spacing:0px;clip-rule:evenodd;fill:#444444;fill-opacity:1;fill-rule:evenodd;stroke:none;stroke-linecap:round;stroke-linejoin:round;stroke-miterlimit:1.41420996"
       id="path4902"
       inkscape:connector-curvature="0" /><path
       d="M 177.75667,102.81555 Q 177.75667,104.35555 177.47667,105.85555 177.21668,107.33555 176.49667,108.55555 175.79667,109.75555 174.49667,110.47555 173.21668,111.19555 171.19667,111.19555 170.79667,111.19555 170.25667,111.13555 169.71668,111.09555 169.39668,110.99555 V 109.49555 Q 170.17667,109.75555 171.15667,109.75555 172.55667,109.75555 173.45668,109.29555 174.37667,108.83555 174.91667,108.05555 175.45668,107.25555 175.69667,106.21555 175.93667,105.15555 175.97667,103.99555 H 175.85667 Q 175.39668,104.67555 174.57668,105.17555 173.75667,105.65555 172.45668,105.65555 170.61667,105.65555 169.47667,104.53555 168.35667,103.39555 168.35667,101.33555 168.35667,99.835546 168.91667,98.755546 169.47667,97.675546 170.49667,97.095546 171.53667,96.515546 172.91667,96.515546 174.27668,96.515546 175.37667,97.215546 176.47667,97.895546 177.11667,99.295546 177.75667,100.67555 177.75667,102.81555 Z M 172.91667,97.995546 Q 171.67667,97.995546 170.87667,98.815546 170.09667,99.635546 170.09667,101.31555 170.09667,102.69555 170.75667,103.49555 171.43667,104.27555 172.83668,104.27555 173.79667,104.27555 174.49667,103.89555 175.19667,103.49555 175.57668,102.89555 175.97667,102.29555 175.97667,101.65555 175.97667,100.79555 175.63667,99.955546 175.29667,99.115546 174.61667,98.555546 173.93667,97.995546 172.91667,97.995546 Z"
       style="font-style:normal;font-variant:normal;font-weight:normal;font-stretch:normal;font-size:20px;line-height:1.25;font-family:'Noto Sans';-inkscape-font-specification:'Noto Sans';letter-spacing:0px;word-spacing:0px;clip-rule:evenodd;fill:#444444;fill-opacity:1;fill-rule:evenodd;stroke:none;stroke-linecap:round;stroke-linejoin:round;stroke-miterlimit:1.41420996"
       id="path4904"
       inkscape:connector-curvature="0" /></g><g
     id="g4599"><path
       d="M 68.179725,140.48515 C 66.757278,139.21855 65.092561,138.64192 63.093485,138.64192 58.940903,138.64192 55.720562,141.9501 55.720562,146.63681 55.720562,151.54454 59.251178,154.03099 62.916387,154.03099 65.825037,154.03099 68.423411,153.05482 68.423411,153.05482 L 68.400743,146.52488 H 65.20307 L 65.602602,148.4347 V 151.56579 C 65.602602,151.56579 64.493264,151.85481 63.315919,151.85481 61.006568,151.85481 58.718468,149.8784 58.718468,146.41438 58.718468,143.43914 60.607036,140.84076 63.116153,140.84076 64.426675,140.84076 65.758448,141.3508 67.002381,142.61741 Z"
       style="fill:#1176a2;fill-rule:nonzero;stroke-width:0.14167801"
       id="path128"
       inkscape:connector-curvature="0" /><path
       d="M 75.61782,142.19521 C 71.910107,142.19521 70.333231,145.17044 70.333231,148.41345 70.333231,151.27818 72.087204,154.03099 75.396802,154.03099 78.282783,154.03099 80.059425,152.45411 80.059425,152.45411 L 79.659893,150.19009 C 79.659893,150.19009 77.862,151.76555 75.929512,151.76555 74.175538,151.76555 73.264549,150.34452 73.152623,148.54663 H 79.304282 L 79.838408,148.0125 C 79.793071,146.34779 79.504048,142.19521 75.61782,142.19521 Z M 75.351465,144.08236 C 76.52881,144.08236 76.905673,145.52606 76.973679,146.59147 H 73.264549 C 73.508235,145.19311 74.130201,144.08236 75.351465,144.08236 Z"
       style="fill:#1176a2;fill-rule:nonzero;stroke-width:0.14167801"
       id="path130"
       inkscape:connector-curvature="0" /><path
       d="M 92.362743,147.87933 C 92.362743,143.94918 90.1639,142.19521 87.255251,142.19521 83.479532,142.19521 81.369947,144.97068 81.369947,148.28028 81.369947,151.07842 83.123921,154.03099 86.500107,154.03099 90.209237,154.03099 92.362743,151.18892 92.362743,147.87933 Z M 84.301265,148.10176 C 84.301265,145.88167 85.256174,144.17161 86.855719,144.17161 88.453847,144.17161 89.408757,145.88167 89.408757,148.10176 89.408757,150.32327 88.453847,152.05458 86.855719,152.05458 85.256174,152.05458 84.301265,150.32327 84.301265,148.10176 Z"
       style="fill:#1176a2;fill-rule:nonzero;stroke-width:0.14167801"
       id="path132"
       inkscape:connector-curvature="0" /><path
       d="M 107.66397,138.90828 H 104.79924 L 105.10951,141.19638 V 148.8569 L 104.26511,147.47979 96.981446,138.90828 H 94.761351 L 95.071626,141.19638 V 153.74338 H 97.869767 L 97.626081,151.83356 V 143.92651 L 98.491733,145.32629 105.97517,153.74338 H 107.8184 L 107.66397,151.83356 Z"
       style="fill:#1176a2;fill-rule:nonzero;stroke-width:0.14167801"
       id="path134"
       inkscape:connector-curvature="0" /><path
       d="M 121.34298,147.87933 C 121.34298,143.94918 119.14414,142.19521 116.23549,142.19521 112.45977,142.19521 110.35018,144.97068 110.35018,148.28028 110.35018,151.07842 112.10557,154.03099 115.48034,154.03099 119.18947,154.03099 121.34298,151.18892 121.34298,147.87933 Z M 113.2815,148.10176 C 113.2815,145.88167 114.23641,144.17161 115.83595,144.17161 117.43408,144.17161 118.38899,145.88167 118.38899,148.10176 118.38899,150.32327 117.43408,152.05458 115.83595,152.05458 114.23641,152.05458 113.2815,150.32327 113.2815,148.10176 Z"
       style="fill:#1176a2;fill-rule:nonzero;stroke-width:0.14167801"
       id="path136"
       inkscape:connector-curvature="0" /><path
       d="M 132.75797,136.70943 129.69348,137.04238 130.00375,139.28656 V 142.30571 C 130.00375,142.30571 129.09276,142.19521 128.7159,142.19521 125.25187,142.19521 122.85327,145.03727 122.85327,148.34686 122.85327,152.03333 124.91893,154.00973 127.29487,154.00973 128.2937,154.00973 129.64814,153.40902 130.3367,152.65388 130.60305,153.49828 131.09184,153.9644 131.09184,153.9644 L 133.88998,153.65412 C 133.88998,153.65412 132.75797,152.32093 132.75797,150.98916 Z M 128.00468,151.94407 C 126.80608,151.94407 125.80725,150.56696 125.80725,148.1471 125.80725,145.92559 126.96193,144.17161 128.36029,144.17161 129.22594,144.17161 130.00375,144.30479 130.00375,144.30479 V 150.8999 C 129.3152,151.4992 128.58272,151.94407 128.00468,151.94407 Z"
       style="fill:#1176a2;fill-rule:nonzero;stroke-width:0.14167801"
       id="path138"
       inkscape:connector-curvature="0" /><path
       d="M 140.66361,142.19521 C 136.95448,142.19521 135.3776,145.17044 135.3776,148.41345 135.3776,151.27818 137.13299,154.03099 140.44117,154.03099 143.32857,154.03099 145.10521,152.45411 145.10521,152.45411 L 144.70426,150.19009 C 144.70426,150.19009 142.90637,151.76555 140.97388,151.76555 139.21991,151.76555 138.30892,150.34452 138.19841,148.54663 H 144.35007 L 144.88278,148.0125 C 144.83886,146.34779 144.54983,142.19521 140.66361,142.19521 Z M 140.39725,144.08236 C 141.57318,144.08236 141.95146,145.52606 142.01805,146.59147 H 138.30892 C 138.55402,145.19311 139.17599,144.08236 140.39725,144.08236 Z"
       style="fill:#1176a2;fill-rule:nonzero;stroke-width:0.14167801"
       id="path140"
       inkscape:connector-curvature="0" /><path
       d="M 64.74056,170.85607 Q 64.74056,172.75607 63.36056,173.81607 61.98056,174.87607 59.64056,174.87607 58.44056,174.87607 57.42056,174.69607 56.40056,174.51607 55.72056,174.19607 V 172.47607 Q 56.44056,172.79607 57.50056,173.05607 58.58056,173.31607 59.72056,173.31607 61.30056,173.31607 62.12056,172.69607 62.94056,172.07607 62.94056,171.01607 62.94056,170.31607 62.64056,169.83607 62.34056,169.35607 61.60056,168.95607 60.86056,168.55607 59.58056,168.07607 57.74056,167.41607 56.82056,166.45607 55.90056,165.49607 55.90056,163.83607 55.90056,162.71607 56.48056,161.89607 57.06057,161.07607 58.08056,160.63607 59.10056,160.19607 60.46056,160.19607 61.62056,160.19607 62.60056,160.41607 63.58056,160.63607 64.40056,160.99607 L 63.84056,162.53607 Q 63.10056,162.21607 62.22056,161.99607 61.34056,161.77607 60.42056,161.77607 59.08056,161.77607 58.40056,162.35607 57.72056,162.91607 57.72056,163.85607 57.72056,164.57607 58.02056,165.05607 58.32056,165.53607 59.00056,165.93607 59.68056,166.31607 60.84056,166.73607 62.10056,167.19607 62.96056,167.73607 63.84056,168.25607 64.28056,168.99607 64.74056,169.73607 64.74056,170.85607 Z"
       style="font-style:normal;font-variant:normal;font-weight:normal;font-stretch:normal;font-size:20px;line-height:1.25;font-family:'Noto Sans';-inkscape-font-specification:'Noto Sans';letter-spacing:0px;word-spacing:0px;clip-rule:evenodd;fill:#1176a2;fill-opacity:1;fill-rule:evenodd;stroke:none;stroke-linecap:round;stroke-linejoin:round;stroke-miterlimit:1.41420996"
       id="path4917"
       inkscape:connector-curvature="0" /><path
       d="M 76.37619,163.95607 V 174.67607 H 74.93619 L 74.67619,173.25607 H 74.59619 Q 74.07619,174.09607 73.15619,174.49607 72.23619,174.87607 71.19619,174.87607 69.25619,174.87607 68.27619,173.95607 67.29619,173.01607 67.29619,170.97607 V 163.95607 H 69.07619 V 170.85607 Q 69.07619,173.41607 71.45619,173.41607 73.23619,173.41607 73.91619,172.41607 74.61619,171.41607 74.61619,169.53607 V 163.95607 Z"
       style="font-style:normal;font-variant:normal;font-weight:normal;font-stretch:normal;font-size:20px;line-height:1.25;font-family:'Noto Sans';-inkscape-font-specification:'Noto Sans';letter-spacing:0px;word-spacing:0px;clip-rule:evenodd;fill:#1176a2;fill-opacity:1;fill-rule:evenodd;stroke:none;stroke-linecap:round;stroke-linejoin:round;stroke-miterlimit:1.41420996"
       id="path4919"
       inkscape:connector-curvature="0" /><path
       d="M 91.51994,163.75607 Q 93.33994,163.75607 94.23994,164.69607 95.13994,165.63607 95.13994,167.69607 V 174.67607 H 93.39994 V 167.77607 Q 93.39994,165.23607 91.21994,165.23607 89.65994,165.23607 88.97994,166.13607 88.31994,167.03607 88.31994,168.75607 V 174.67607 H 86.57994 V 167.77607 Q 86.57994,165.23607 84.37994,165.23607 82.75994,165.23607 82.13994,166.23607 81.51994,167.23607 81.51994,169.11607 V 174.67607 H 79.75994 V 163.95607 H 81.17994 L 81.43994,165.41607 H 81.53994 Q 82.03994,164.57607 82.87994,164.17607 83.73994,163.75607 84.69994,163.75607 87.21994,163.75607 87.97994,165.55607 H 88.07994 Q 88.61994,164.63607 89.53994,164.19607 90.45994,163.75607 91.51994,163.75607 Z"
       style="font-style:normal;font-variant:normal;font-weight:normal;font-stretch:normal;font-size:20px;line-height:1.25;font-family:'Noto Sans';-inkscape-font-specification:'Noto Sans';letter-spacing:0px;word-spacing:0px;clip-rule:evenodd;fill:#1176a2;fill-opacity:1;fill-rule:evenodd;stroke:none;stroke-linecap:round;stroke-linejoin:round;stroke-miterlimit:1.41420996"
       id="path4921"
       inkscape:connector-curvature="0" /><path
       d="M 110.19181,163.75607 Q 112.01181,163.75607 112.91181,164.69607 113.81181,165.63607 113.81181,167.69607 V 174.67607 H 112.07181 V 167.77607 Q 112.07181,165.23607 109.89181,165.23607 108.33181,165.23607 107.65182,166.13607 106.99181,167.03607 106.99181,168.75607 V 174.67607 H 105.25181 V 167.77607 Q 105.25181,165.23607 103.05181,165.23607 101.43181,165.23607 100.81181,166.23607 100.19181,167.23607 100.19181,169.11607 V 174.67607 H 98.43181 V 163.95607 H 99.85181 L 100.11181,165.41607 H 100.21181 Q 100.71181,164.57607 101.55181,164.17607 102.41181,163.75607 103.37181,163.75607 105.89181,163.75607 106.65181,165.55607 H 106.75181 Q 107.29181,164.63607 108.21181,164.19607 109.13181,163.75607 110.19181,163.75607 Z"
       style="font-style:normal;font-variant:normal;font-weight:normal;font-stretch:normal;font-size:20px;line-height:1.25;font-family:'Noto Sans';-inkscape-font-specification:'Noto Sans';letter-spacing:0px;word-spacing:0px;clip-rule:evenodd;fill:#1176a2;fill-opacity:1;fill-rule:evenodd;stroke:none;stroke-linecap:round;stroke-linejoin:round;stroke-miterlimit:1.41420996"
       id="path4923"
       inkscape:connector-curvature="0" /><path
       d="M 118.00369,159.93607 Q 118.40369,159.93607 118.70369,160.21607 119.02369,160.47607 119.02369,161.05607 119.02369,161.63607 118.70369,161.91607 118.40369,162.17607 118.00369,162.17607 117.56369,162.17607 117.26369,161.91607 116.96369,161.63607 116.96369,161.05607 116.96369,160.47607 117.26369,160.21607 117.56369,159.93607 118.00369,159.93607 Z M 118.86369,163.95607 V 174.67607 H 117.10369 V 163.95607 Z"
       style="font-style:normal;font-variant:normal;font-weight:normal;font-stretch:normal;font-size:20px;line-height:1.25;font-family:'Noto Sans';-inkscape-font-specification:'Noto Sans';letter-spacing:0px;word-spacing:0px;clip-rule:evenodd;fill:#1176a2;fill-opacity:1;fill-rule:evenodd;stroke:none;stroke-linecap:round;stroke-linejoin:round;stroke-miterlimit:1.41420996"
       id="path4925"
       inkscape:connector-curvature="0" /><path
       d="M 125.83994,173.43607 Q 126.23994,173.43607 126.65994,173.37607 127.07994,173.31607 127.33994,173.21607 V 174.55607 Q 127.05994,174.69607 126.53994,174.77607 126.01994,174.87607 125.53994,174.87607 124.69994,174.87607 123.97994,174.59607 123.27994,174.29607 122.83994,173.57607 122.39994,172.85607 122.39994,171.55607 V 165.31607 H 120.87994 V 164.47607 L 122.41994,163.77607 123.11994,161.49607 H 124.15994 V 163.95607 H 127.25994 V 165.31607 H 124.15994 V 171.51607 Q 124.15994,172.49607 124.61994,172.97607 125.09994,173.43607 125.83994,173.43607 Z"
       style="font-style:normal;font-variant:normal;font-weight:normal;font-stretch:normal;font-size:20px;line-height:1.25;font-family:'Noto Sans';-inkscape-font-specification:'Noto Sans';letter-spacing:0px;word-spacing:0px;clip-rule:evenodd;fill:#1176a2;fill-opacity:1;fill-rule:evenodd;stroke:none;stroke-linecap:round;stroke-linejoin:round;stroke-miterlimit:1.41420996"
       id="path4927"
       inkscape:connector-curvature="0" /><path
       d="M 143.38181,174.67607 H 133.94181 V 173.21607 L 137.68181,169.43607 Q 138.74181,168.35607 139.48181,167.51607 140.24181,166.67607 140.62181,165.87607 141.00181,165.07607 141.00181,164.09607 141.00181,162.91607 140.30181,162.31607 139.60181,161.69607 138.48181,161.69607 137.42181,161.69607 136.64182,162.05607 135.86181,162.41607 135.04181,163.05607 L 134.10181,161.87607 Q 134.94181,161.17607 136.02182,160.69607 137.12181,160.19607 138.48181,160.19607 140.48181,160.19607 141.64182,161.21607 142.80181,162.23607 142.80181,163.99607 142.80181,165.11607 142.34182,166.09607 141.88181,167.07607 141.06181,168.03607 140.24181,168.99607 139.14182,170.05607 L 136.16181,172.99607 V 173.07607 H 143.38181 Z"
       style="font-style:normal;font-variant:normal;font-weight:normal;font-stretch:normal;font-size:20px;line-height:1.25;font-family:'Noto Sans';-inkscape-font-specification:'Noto Sans';letter-spacing:0px;word-spacing:0px;clip-rule:evenodd;fill:#1176a2;fill-opacity:1;fill-rule:evenodd;stroke:none;stroke-linecap:round;stroke-linejoin:round;stroke-miterlimit:1.41420996"
       id="path4929"
       inkscape:connector-curvature="0" /><path
       d="M 154.92619,167.51607 Q 154.92619,169.83607 154.44619,171.47607 153.96619,173.11607 152.90619,173.99607 151.86619,174.87607 150.16619,174.87607 147.74619,174.87607 146.58619,172.93607 145.44619,170.97607 145.44619,167.51607 145.44619,165.19607 145.90619,163.55607 146.38619,161.91607 147.42619,161.05607 148.46619,160.17607 150.16619,160.17607 152.56619,160.17607 153.74619,162.11607 154.92619,164.03607 154.92619,167.51607 Z M 147.20619,167.51607 Q 147.20619,170.45607 147.86619,171.91607 148.54619,173.37607 150.16619,173.37607 151.76619,173.37607 152.44619,171.93607 153.14619,170.47607 153.14619,167.51607 153.14619,164.59607 152.44619,163.13607 151.76619,161.67607 150.16619,161.67607 148.54619,161.67607 147.86619,163.13607 147.20619,164.59607 147.20619,167.51607 Z"
       style="font-style:normal;font-variant:normal;font-weight:normal;font-stretch:normal;font-size:20px;line-height:1.25;font-family:'Noto Sans';-inkscape-font-specification:'Noto Sans';letter-spacing:0px;word-spacing:0px;clip-rule:evenodd;fill:#1176a2;fill-opacity:1;fill-rule:evenodd;stroke:none;stroke-linecap:round;stroke-linejoin:round;stroke-miterlimit:1.41420996"
       id="path4931"
       inkscape:connector-curvature="0" /><path
       d="M 163.0115,174.67607 H 161.2915 V 164.69607 Q 161.2915,163.83607 161.3115,163.31607 161.3315,162.79607 161.3715,162.23607 161.0515,162.55607 160.7715,162.77607 160.5115,162.99607 160.1315,163.33607 L 158.6115,164.57607 157.6915,163.39607 161.5515,160.39607 H 163.0115 Z"
       style="font-style:normal;font-variant:normal;font-weight:normal;font-stretch:normal;font-size:20px;line-height:1.25;font-family:'Noto Sans';-inkscape-font-specification:'Noto Sans';letter-spacing:0px;word-spacing:0px;clip-rule:evenodd;fill:#1176a2;fill-opacity:1;fill-rule:evenodd;stroke:none;stroke-linecap:round;stroke-linejoin:round;stroke-miterlimit:1.41420996"
       id="path4933"
       inkscape:connector-curvature="0" /><path
       d="M 177.75681,166.49607 Q 177.75681,168.03607 177.47681,169.53607 177.21682,171.01607 176.49681,172.23607 175.79681,173.43607 174.49681,174.15607 173.21682,174.87607 171.19681,174.87607 170.79681,174.87607 170.25681,174.81607 169.71682,174.77607 169.39682,174.67607 V 173.17607 Q 170.17681,173.43607 171.15681,173.43607 172.55681,173.43607 173.45682,172.97607 174.37681,172.51607 174.91681,171.73607 175.45682,170.93607 175.69681,169.89607 175.93681,168.83607 175.97681,167.67607 H 175.85681 Q 175.39682,168.35607 174.57682,168.85607 173.75681,169.33607 172.45682,169.33607 170.61681,169.33607 169.47681,168.21607 168.35681,167.07607 168.35681,165.01607 168.35681,163.51607 168.91681,162.43607 169.47681,161.35607 170.49681,160.77607 171.53681,160.19607 172.91681,160.19607 174.27682,160.19607 175.37681,160.89607 176.47681,161.57607 177.11681,162.97607 177.75681,164.35607 177.75681,166.49607 Z M 172.91681,161.67607 Q 171.67681,161.67607 170.87681,162.49607 170.09681,163.31607 170.09681,164.99607 170.09681,166.37607 170.75681,167.17607 171.43681,167.95607 172.83682,167.95607 173.79681,167.95607 174.49681,167.57607 175.19681,167.17607 175.57682,166.57607 175.97681,165.97607 175.97681,165.33607 175.97681,164.47607 175.63681,163.63607 175.29681,162.79607 174.61681,162.23607 173.93681,161.67607 172.91681,161.67607 Z"
       style="font-style:normal;font-variant:normal;font-weight:normal;font-stretch:normal;font-size:20px;line-height:1.25;font-family:'Noto Sans';-inkscape-font-specification:'Noto Sans';letter-spacing:0px;word-spacing:0px;clip-rule:evenodd;fill:#1176a2;fill-opacity:1;fill-rule:evenodd;stroke:none;stroke-linecap:round;stroke-linejoin:round;stroke-miterlimit:1.41420996"
       id="path4935"
       inkscape:connector-curvature="0" /></g></svg>