<?xml version="1.0" standalone="no"?>
<!DOCTYPE svg PUBLIC "-//W3C//DTD SVG 1.1//EN" "http://www.w3.org/Graphics/SVG/1.1/DTD/svg11.dtd">
<svg x="0px" y="0px" width="185px" height="188px" viewBox="0 0 185 188" version="1.1" xmlns="http://www.w3.org/2000/svg" xmlns:xlink="http://www.w3.org/1999/xlink" xml:space="preserve" style="fill-rule:evenodd;clip-rule:evenodd;stroke-linecap:round;stroke-linejoin:round;stroke-miterlimit:1.41421;">
    <g transform="matrix(0.127596,0,0,0.127596,-56.4185,-229.745)">
        <g transform="matrix(0.936491,0,0,0.921741,414.486,1810.89)">
            <path d="M245.854,200L285.566,222.927L285.566,268.782L245.854,291.709L206.143,268.782L206.143,222.927L245.854,200Z" style="fill:rgb(17,119,162);stroke-width:11.25px;stroke:rgb(17,119,162);"/>
        </g>
        <g transform="matrix(1,0,0,1,444.726,1837.5)">
            <path d="M237.028,39.108L228.937,119.56L200,142.191L171.063,119.56C171.063,119.56 162.811,41.99 162.811,39.108C162.811,18.614 179.425,2 199.919,2C220.414,2 237.028,18.614 237.028,39.108Z" style="fill:rgb(17,119,162);stroke-width:10.45px;stroke:rgb(17,119,162);"/>
        </g>
        <g transform="matrix(1,0,0,-1,444.726,2239.5)">
            <path d="M237.028,39.108L228.937,119.56L200,142.191L171.063,119.56C171.063,119.56 162.811,41.99 162.811,39.108C162.811,18.614 179.425,2 199.919,2C220.414,2 237.028,18.614 237.028,39.108Z" style="fill:rgb(17,119,162);stroke-width:10.45px;stroke:rgb(17,119,162);"/>
        </g>
        <g transform="matrix(0.5,0.866025,-0.922097,0.532373,724.74,1760.56)">
            <path d="M237.028,39.108L228.937,119.56L200,142.191L171.063,119.56C171.063,119.56 162.811,41.99 162.811,39.108C162.811,18.614 179.425,2 199.919,2C220.414,2 237.028,18.614 237.028,39.108Z" style="fill:rgb(17,119,162);stroke-width:10.12px;stroke:rgb(17,119,162);"/>
        </g>
        <g transform="matrix(-0.5,0.866025,0.922097,0.532373,564.552,1760.56)">
            <path d="M237.028,39.108L228.937,119.56L200,142.191L171.063,119.56C171.063,119.56 162.811,41.99 162.811,39.108C162.811,18.614 179.425,2 199.919,2C220.414,2 237.028,18.614 237.028,39.108Z" style="fill:rgb(17,119,162);stroke-width:10.12px;stroke:rgb(17,119,162);"/>
        </g>
        <g transform="matrix(0.5,-0.866025,-0.922097,-0.532373,724.74,2316.45)">
            <path d="M237.028,39.108L228.937,119.56L200,142.191L171.063,119.56C171.063,119.56 162.811,41.99 162.811,39.108C162.811,18.614 179.425,2 199.919,2C220.414,2 237.028,18.614 237.028,39.108Z" style="fill:rgb(17,119,162);stroke-width:10.12px;stroke:rgb(17,119,162);"/>
        </g>
        <g transform="matrix(-0.5,-0.866025,0.922097,-0.532373,564.713,2316.45)">
            <path d="M237.028,39.108L228.937,119.56L200,142.191L171.063,119.56C171.063,119.56 162.811,41.99 162.811,39.108C162.811,18.614 179.425,2 199.919,2C220.414,2 237.028,18.614 237.028,39.108Z" style="fill:rgb(17,119,162);stroke-width:10.12px;stroke:rgb(17,119,162);"/>
        </g>
    </g>
    <g transform="matrix(0.127596,0,0,0.127596,-56.4185,-103.675)">
        <g transform="matrix(0.936491,0,0,0.921741,414.486,1810.89)">
            <path d="M245.854,200L285.566,222.927L285.566,268.782L245.854,291.709L206.143,268.782L206.143,222.927L245.854,200Z" style="fill:rgb(17,119,162);stroke-width:11.25px;stroke:rgb(17,119,162);"/>
        </g>
        <g transform="matrix(1,0,0,1,444.726,1837.5)">
            <path d="M237.028,39.108L228.937,119.56L200,142.191L171.063,119.56C171.063,119.56 162.811,41.99 162.811,39.108C162.811,18.614 179.425,2 199.919,2C220.414,2 237.028,18.614 237.028,39.108Z" style="fill:rgb(17,119,162);stroke-width:10.45px;stroke:rgb(17,119,162);"/>
        </g>
        <g transform="matrix(1,0,0,-1,444.726,2239.5)">
            <path d="M237.028,39.108L228.937,119.56L200,142.191L171.063,119.56C171.063,119.56 162.811,41.99 162.811,39.108C162.811,18.614 179.425,2 199.919,2C220.414,2 237.028,18.614 237.028,39.108Z" style="fill:rgb(17,119,162);stroke-width:10.45px;stroke:rgb(17,119,162);"/>
        </g>
        <g transform="matrix(0.5,0.866025,-0.922097,0.532373,724.74,1760.56)">
            <path d="M237.028,39.108L228.937,119.56L200,142.191L171.063,119.56C171.063,119.56 162.811,41.99 162.811,39.108C162.811,18.614 179.425,2 199.919,2C220.414,2 237.028,18.614 237.028,39.108Z" style="fill:rgb(17,119,162);stroke-width:10.12px;stroke:rgb(17,119,162);"/>
        </g>
        <g transform="matrix(-0.5,0.866025,0.922097,0.532373,564.552,1760.56)">
            <path d="M237.028,39.108L228.937,119.56L200,142.191L171.063,119.56C171.063,119.56 162.811,41.99 162.811,39.108C162.811,18.614 179.425,2 199.919,2C220.414,2 237.028,18.614 237.028,39.108Z" style="fill:rgb(17,119,162);stroke-width:10.12px;stroke:rgb(17,119,162);"/>
        </g>
        <g transform="matrix(0.5,-0.866025,-0.922097,-0.532373,724.74,2316.45)">
            <path d="M237.028,39.108L228.937,119.56L200,142.191L171.063,119.56C171.063,119.56 162.811,41.99 162.811,39.108C162.811,18.614 179.425,2 199.919,2C220.414,2 237.028,18.614 237.028,39.108Z" style="fill:rgb(17,119,162);stroke-width:10.12px;stroke:rgb(17,119,162);"/>
        </g>
        <g transform="matrix(-0.5,-0.866025,0.922097,-0.532373,564.713,2316.45)">
            <path d="M237.028,39.108L228.937,119.56L200,142.191L171.063,119.56C171.063,119.56 162.811,41.99 162.811,39.108C162.811,18.614 179.425,2 199.919,2C220.414,2 237.028,18.614 237.028,39.108Z" style="fill:rgb(17,119,162);stroke-width:10.12px;stroke:rgb(17,119,162);"/>
        </g>
    </g>
    <g transform="matrix(0.141685,0,0,0.141685,-103.406,-119.078)">
        <path d="M1211.04,1382.51C1201,1373.57 1189.25,1369.5 1175.14,1369.5C1145.83,1369.5 1123.1,1392.85 1123.1,1425.93C1123.1,1460.57 1148.02,1478.12 1173.89,1478.12C1194.42,1478.12 1212.76,1471.23 1212.76,1471.23L1212.6,1425.14L1190.03,1425.14L1192.85,1438.62L1192.85,1460.72C1192.85,1460.72 1185.02,1462.76 1176.71,1462.76C1160.41,1462.76 1144.26,1448.81 1144.26,1424.36C1144.26,1403.36 1157.59,1385.02 1175.3,1385.02C1184.55,1385.02 1193.95,1388.62 1202.73,1397.56L1211.04,1382.51Z" style="fill:rgb(68,68,68);fill-rule:nonzero;"/>
        <path d="M1263.54,1394.58C1237.37,1394.58 1226.24,1415.58 1226.24,1438.47C1226.24,1458.69 1238.62,1478.12 1261.98,1478.12C1282.35,1478.12 1294.89,1466.99 1294.89,1466.99L1292.07,1451.01C1292.07,1451.01 1279.38,1462.13 1265.74,1462.13C1253.36,1462.13 1246.93,1452.1 1246.14,1439.41L1289.56,1439.41L1293.33,1435.64C1293.01,1423.89 1290.97,1394.58 1263.54,1394.58ZM1261.66,1407.9C1269.97,1407.9 1272.63,1418.09 1273.11,1425.61L1246.93,1425.61C1248.65,1415.74 1253.04,1407.9 1261.66,1407.9Z" style="fill:rgb(68,68,68);fill-rule:nonzero;"/>
        <path d="M1381.73,1434.7C1381.73,1406.96 1366.21,1394.58 1345.68,1394.58C1319.03,1394.58 1304.14,1414.17 1304.14,1437.53C1304.14,1457.28 1316.52,1478.12 1340.35,1478.12C1366.53,1478.12 1381.73,1458.06 1381.73,1434.7ZM1324.83,1436.27C1324.83,1420.6 1331.57,1408.53 1342.86,1408.53C1354.14,1408.53 1360.88,1420.6 1360.88,1436.27C1360.88,1451.95 1354.14,1464.17 1342.86,1464.17C1331.57,1464.17 1324.83,1451.95 1324.83,1436.27Z" style="fill:rgb(68,68,68);fill-rule:nonzero;"/>
        <path d="M1489.73,1371.38L1469.51,1371.38L1471.7,1387.53L1471.7,1441.6L1465.74,1431.88L1414.33,1371.38L1398.66,1371.38L1400.85,1387.53L1400.85,1476.09L1420.6,1476.09L1418.88,1462.61L1418.88,1406.8L1424.99,1416.68L1477.81,1476.09L1490.82,1476.09L1489.73,1462.61L1489.73,1371.38Z" style="fill:rgb(68,68,68);fill-rule:nonzero;"/>
        <path d="M1586.28,1434.7C1586.28,1406.96 1570.76,1394.58 1550.23,1394.58C1523.58,1394.58 1508.69,1414.17 1508.69,1437.53C1508.69,1457.28 1521.08,1478.12 1544.9,1478.12C1571.08,1478.12 1586.28,1458.06 1586.28,1434.7ZM1529.38,1436.27C1529.38,1420.6 1536.12,1408.53 1547.41,1408.53C1558.69,1408.53 1565.43,1420.6 1565.43,1436.27C1565.43,1451.95 1558.69,1464.17 1547.41,1464.17C1536.12,1464.17 1529.38,1451.95 1529.38,1436.27Z" style="fill:rgb(68,68,68);fill-rule:nonzero;"/>
        <path d="M1666.85,1355.86L1645.22,1358.21L1647.41,1374.05L1647.41,1395.36C1647.41,1395.36 1640.98,1394.58 1638.32,1394.58C1613.87,1394.58 1596.94,1414.64 1596.94,1438C1596.94,1464.02 1611.52,1477.97 1628.29,1477.97C1635.34,1477.97 1644.9,1473.73 1649.76,1468.4C1651.64,1474.36 1655.09,1477.65 1655.09,1477.65L1674.84,1475.46C1674.84,1475.46 1666.85,1466.05 1666.85,1456.65L1666.85,1355.86ZM1633.3,1463.39C1624.84,1463.39 1617.79,1453.67 1617.79,1436.59C1617.79,1420.91 1625.94,1408.53 1635.81,1408.53C1641.92,1408.53 1647.41,1409.47 1647.41,1409.47L1647.41,1456.02C1642.55,1460.25 1637.38,1463.39 1633.3,1463.39Z" style="fill:rgb(68,68,68);fill-rule:nonzero;"/>
        <path d="M1722.65,1394.58C1696.47,1394.58 1685.34,1415.58 1685.34,1438.47C1685.34,1458.69 1697.73,1478.12 1721.08,1478.12C1741.46,1478.12 1754,1466.99 1754,1466.99L1751.17,1451.01C1751.17,1451.01 1738.48,1462.13 1724.84,1462.13C1712.46,1462.13 1706.03,1452.1 1705.25,1439.41L1748.67,1439.41L1752.43,1435.64C1752.12,1423.89 1750.08,1394.58 1722.65,1394.58ZM1720.77,1407.9C1729.07,1407.9 1731.74,1418.09 1732.21,1425.61L1706.03,1425.61C1707.76,1415.74 1712.15,1407.9 1720.77,1407.9Z" style="fill:rgb(68,68,68);fill-rule:nonzero;"/>
        <path d="M1124.67,1614.59C1124.67,1614.59 1136.27,1625.25 1156.64,1625.25C1176.71,1625.25 1189.4,1611.45 1189.4,1593.59C1189.4,1561.45 1144.42,1561.61 1144.42,1543.43C1144.42,1536.22 1151.32,1531.51 1157.11,1531.51C1172.48,1531.51 1182.82,1540.13 1182.82,1540.13L1186.74,1524.46C1181.25,1521.01 1171.07,1516.62 1157.59,1516.62C1137.99,1516.62 1125.77,1530.57 1125.77,1547.5C1125.77,1578.22 1170.28,1579.16 1170.28,1597.03C1170.28,1604.09 1164.17,1610.04 1155.55,1610.04C1139.09,1610.04 1126.24,1597.03 1126.24,1597.03L1124.67,1614.59Z" style="fill:rgb(68,68,68);fill-rule:nonzero;"/>
        <path d="M1282.51,1622.43C1282.51,1622.43 1274.52,1613.02 1274.52,1603.62L1274.52,1541.86L1252.88,1544.21L1255.08,1560.04L1255.08,1599.38C1255.08,1599.38 1247.71,1609.1 1235.02,1609.1C1227.18,1609.1 1225.92,1603.3 1225.92,1589.51L1225.92,1541.86L1204.3,1544.21L1206.49,1560.04L1206.49,1605.18C1206.49,1618.82 1218.25,1625.25 1230.16,1625.25C1246.77,1625.25 1257.12,1614.59 1257.12,1614.59C1258.21,1620.23 1262.13,1625.25 1262.13,1625.25L1282.51,1622.43Z" style="fill:rgb(68,68,68);fill-rule:nonzero;"/>
        <path d="M1418.25,1623.21L1416.53,1610.04L1416.53,1561.77C1416.53,1548.13 1404.77,1541.7 1392.86,1541.7C1375.3,1541.7 1366.06,1552.2 1365.74,1552.67C1361.67,1545.62 1353.05,1541.7 1344.42,1541.7C1335.8,1541.7 1326.4,1545.31 1319.5,1551.58L1319.5,1541.86L1297.87,1544.21L1300.07,1560.04L1300.07,1623.21L1321.23,1623.21L1319.5,1609.73L1319.5,1567.1C1319.5,1567.1 1327.18,1558 1339.1,1558C1347.09,1558 1348.66,1562.71 1348.66,1577.44L1348.66,1623.21L1369.82,1623.21L1368.09,1610.04L1368.09,1566.94C1368.09,1566.94 1375.93,1558 1387.53,1558C1395.52,1558 1397.09,1562.71 1397.09,1577.44L1397.09,1623.21L1418.25,1623.21Z" style="fill:rgb(68,68,68);fill-rule:nonzero;"/>
        <path d="M1559.63,1623.21L1557.91,1610.04L1557.91,1561.77C1557.91,1548.13 1546.15,1541.7 1534.24,1541.7C1516.69,1541.7 1507.44,1552.2 1507.12,1552.67C1503.05,1545.62 1494.43,1541.7 1485.81,1541.7C1477.19,1541.7 1467.78,1545.31 1460.88,1551.58L1460.88,1541.86L1439.25,1544.21L1441.45,1560.04L1441.45,1623.21L1462.61,1623.21L1460.88,1609.73L1460.88,1567.1C1460.88,1567.1 1468.57,1558 1480.48,1558C1488.47,1558 1490.04,1562.71 1490.04,1577.44L1490.04,1623.21L1511.2,1623.21L1509.48,1610.04L1509.48,1566.94C1509.48,1566.94 1517.31,1558 1528.91,1558C1536.91,1558 1538.47,1562.71 1538.47,1577.44L1538.47,1623.21L1559.63,1623.21Z" style="fill:rgb(68,68,68);fill-rule:nonzero;"/>
        <path d="M1601.95,1541.7L1580.32,1544.05L1582.52,1559.88L1582.52,1623.21L1603.68,1623.21L1601.95,1609.73L1601.95,1541.7ZM1580.95,1520.86C1580.95,1526.65 1585.97,1531.36 1591.92,1531.36C1597.57,1531.36 1602.42,1526.65 1602.42,1520.86C1602.42,1514.74 1597.57,1509.88 1591.92,1509.88C1585.97,1509.88 1580.95,1514.74 1580.95,1520.86Z" style="fill:rgb(68,68,68);fill-rule:nonzero;"/>
        <path d="M1649.13,1527.75L1628.13,1530.1L1628.13,1544.05L1618.57,1544.05L1618.57,1558.63L1628.13,1558.63L1628.13,1599.85C1628.13,1618.19 1634.87,1625.25 1648.19,1625.25C1665.28,1625.25 1674.06,1617.25 1674.06,1617.25L1672.02,1600.17C1668.41,1603.3 1659.79,1607.54 1653.99,1607.54C1650.23,1607.54 1647.41,1605.97 1647.41,1600.33L1647.41,1558.63L1665.91,1558.63L1670.92,1544.05L1647.57,1544.05L1649.13,1527.75Z" style="fill:rgb(68,68,68);fill-rule:nonzero;"/>
        <path d="M1785.03,1623.21L1787.07,1606.28L1749.61,1606.28C1749.61,1606.28 1781.27,1579.32 1781.27,1555.81C1781.27,1538.25 1766.85,1529.48 1751.65,1529.48C1740.83,1529.48 1729.86,1533.55 1722.18,1539.98L1730.33,1554.24C1730.33,1554.24 1738.48,1544.68 1749.45,1544.68C1755.09,1544.68 1761.36,1548.91 1761.36,1557.85C1761.36,1573.99 1736.13,1600.01 1722.65,1614.43L1724.69,1623.21L1785.03,1623.21Z" style="fill:rgb(68,68,68);fill-rule:nonzero;"/>
        <path d="M1834.09,1528.69C1808.39,1528.69 1797.41,1549.38 1797.41,1576.66C1797.41,1612.24 1812.31,1625.25 1830.64,1625.25C1858.86,1625.25 1869.05,1603.62 1869.05,1576.81C1869.05,1554.4 1863.56,1528.69 1834.09,1528.69ZM1833.15,1543.74C1844.44,1543.74 1849.14,1556.91 1849.14,1577.44C1849.14,1598.29 1842.4,1610.51 1832.37,1610.51C1821.08,1610.51 1817.63,1595.78 1817.63,1574.93C1817.63,1554.87 1822.81,1543.74 1833.15,1543.74Z" style="fill:rgb(68,68,68);fill-rule:nonzero;"/>
        <path d="M1878.45,1623.21L1934.25,1623.21L1936.45,1608.16L1917.17,1608.16L1917.17,1528.38L1876.73,1541.7L1882.37,1555.65L1897.73,1550.95L1897.73,1608.16L1878.45,1608.16L1878.45,1623.21Z" style="fill:rgb(68,68,68);fill-rule:nonzero;"/>
        <path d="M1975.16,1625.25C1996.32,1625.25 2012.47,1613.02 2012.47,1593.9C2012.47,1583.4 2002.12,1574.46 1991.15,1566C2000.24,1558.94 2008.24,1551.73 2008.24,1538.72C2008.24,1525.56 1995.54,1516.94 1979.24,1516.94C1958.86,1516.94 1947.11,1527.28 1947.11,1544.05C1947.11,1553.3 1954.63,1561.3 1963.56,1568.66C1953.22,1576.66 1943.34,1585.12 1943.34,1598.91C1943.34,1618.82 1961.37,1625.25 1975.16,1625.25ZM1975.16,1576.66C1984.25,1583.87 1992.72,1590.61 1992.72,1597.35C1992.72,1604.56 1984.57,1609.26 1976.57,1609.26C1967.33,1609.26 1962.47,1602.68 1962.47,1596.41C1962.47,1587.79 1968.58,1581.36 1975.16,1576.66ZM1979.87,1557.85C1971.87,1551.89 1965.91,1546.56 1965.91,1540.92C1965.91,1534.18 1970.77,1531.04 1977.51,1531.04C1985.82,1531.04 1989.43,1537 1989.43,1542.02C1989.43,1549.07 1985.19,1553.93 1979.87,1557.85Z" style="fill:rgb(68,68,68);fill-rule:nonzero;"/>
    </g>
    <g transform="matrix(0.127596,0,0,0.127596,-56.4185,-167.192)">
        <g transform="matrix(0.936491,0,0,0.921741,414.486,1810.89)">
            <path d="M245.854,200L285.566,222.927L285.566,268.782L245.854,291.709L206.143,268.782L206.143,222.927L245.854,200Z" style="fill:rgb(68,68,68);stroke-width:11.25px;stroke:rgb(68,68,68);"/>
        </g>
        <g transform="matrix(1,0,0,1,444.726,1837.5)">
            <path d="M237.028,39.108L228.937,119.56L200,142.191L171.063,119.56C171.063,119.56 162.811,41.99 162.811,39.108C162.811,18.614 179.425,2 199.919,2C220.414,2 237.028,18.614 237.028,39.108Z" style="fill:rgb(68,68,68);stroke-width:10.45px;stroke:rgb(68,68,68);"/>
        </g>
        <g transform="matrix(1,0,0,-1,444.726,2239.5)">
            <path d="M237.028,39.108L228.937,119.56L200,142.191L171.063,119.56C171.063,119.56 162.811,41.99 162.811,39.108C162.811,18.614 179.425,2 199.919,2C220.414,2 237.028,18.614 237.028,39.108Z" style="fill:rgb(68,68,68);stroke-width:10.45px;stroke:rgb(68,68,68);"/>
        </g>
        <g transform="matrix(0.5,0.866025,-0.922097,0.532373,724.74,1760.56)">
            <path d="M237.028,39.108L228.937,119.56L200,142.191L171.063,119.56C171.063,119.56 162.811,41.99 162.811,39.108C162.811,18.614 179.425,2 199.919,2C220.414,2 237.028,18.614 237.028,39.108Z" style="fill:rgb(68,68,68);stroke-width:10.12px;stroke:rgb(68,68,68);"/>
        </g>
        <g transform="matrix(-0.5,0.866025,0.922097,0.532373,564.552,1760.56)">
            <path d="M237.028,39.108L228.937,119.56L200,142.191L171.063,119.56C171.063,119.56 162.811,41.99 162.811,39.108C162.811,18.614 179.425,2 199.919,2C220.414,2 237.028,18.614 237.028,39.108Z" style="fill:rgb(68,68,68);stroke-width:10.12px;stroke:rgb(68,68,68);"/>
        </g>
        <g transform="matrix(0.5,-0.866025,-0.922097,-0.532373,724.74,2316.45)">
            <path d="M237.028,39.108L228.937,119.56L200,142.191L171.063,119.56C171.063,119.56 162.811,41.99 162.811,39.108C162.811,18.614 179.425,2 199.919,2C220.414,2 237.028,18.614 237.028,39.108Z" style="fill:rgb(68,68,68);stroke-width:10.12px;stroke:rgb(68,68,68);"/>
        </g>
        <g transform="matrix(-0.5,-0.866025,0.922097,-0.532373,564.713,2316.45)">
            <path d="M237.028,39.108L228.937,119.56L200,142.191L171.063,119.56C171.063,119.56 162.811,41.99 162.811,39.108C162.811,18.614 179.425,2 199.919,2C220.414,2 237.028,18.614 237.028,39.108Z" style="fill:rgb(68,68,68);stroke-width:10.12px;stroke:rgb(68,68,68);"/>
        </g>
    </g>
    <g transform="matrix(0.141678,0,0,0.141678,-103.398,-55.3861)">
        <path d="M1211.04,1382.51C1201,1373.57 1189.25,1369.5 1175.14,1369.5C1145.83,1369.5 1123.1,1392.85 1123.1,1425.93C1123.1,1460.57 1148.02,1478.12 1173.89,1478.12C1194.42,1478.12 1212.76,1471.23 1212.76,1471.23L1212.6,1425.14L1190.03,1425.14L1192.85,1438.62L1192.85,1460.72C1192.85,1460.72 1185.02,1462.76 1176.71,1462.76C1160.41,1462.76 1144.26,1448.81 1144.26,1424.36C1144.26,1403.36 1157.59,1385.02 1175.3,1385.02C1184.55,1385.02 1193.95,1388.62 1202.73,1397.56L1211.04,1382.51Z" style="fill:rgb(17,118,162);fill-rule:nonzero;"/>
        <path d="M1263.54,1394.58C1237.37,1394.58 1226.24,1415.58 1226.24,1438.47C1226.24,1458.69 1238.62,1478.12 1261.98,1478.12C1282.35,1478.12 1294.89,1466.99 1294.89,1466.99L1292.07,1451.01C1292.07,1451.01 1279.38,1462.13 1265.74,1462.13C1253.36,1462.13 1246.93,1452.1 1246.14,1439.41L1289.56,1439.41L1293.33,1435.64C1293.01,1423.89 1290.97,1394.58 1263.54,1394.58ZM1261.66,1407.9C1269.97,1407.9 1272.63,1418.09 1273.11,1425.61L1246.93,1425.61C1248.65,1415.74 1253.04,1407.9 1261.66,1407.9Z" style="fill:rgb(17,118,162);fill-rule:nonzero;"/>
        <path d="M1381.73,1434.7C1381.73,1406.96 1366.21,1394.58 1345.68,1394.58C1319.03,1394.58 1304.14,1414.17 1304.14,1437.53C1304.14,1457.28 1316.52,1478.12 1340.35,1478.12C1366.53,1478.12 1381.73,1458.06 1381.73,1434.7ZM1324.83,1436.27C1324.83,1420.6 1331.57,1408.53 1342.86,1408.53C1354.14,1408.53 1360.88,1420.6 1360.88,1436.27C1360.88,1451.95 1354.14,1464.17 1342.86,1464.17C1331.57,1464.17 1324.83,1451.95 1324.83,1436.27Z" style="fill:rgb(17,118,162);fill-rule:nonzero;"/>
        <path d="M1489.73,1371.38L1469.51,1371.38L1471.7,1387.53L1471.7,1441.6L1465.74,1431.88L1414.33,1371.38L1398.66,1371.38L1400.85,1387.53L1400.85,1476.09L1420.6,1476.09L1418.88,1462.61L1418.88,1406.8L1424.99,1416.68L1477.81,1476.09L1490.82,1476.09L1489.73,1462.61L1489.73,1371.38Z" style="fill:rgb(17,118,162);fill-rule:nonzero;"/>
        <path d="M1586.28,1434.7C1586.28,1406.96 1570.76,1394.58 1550.23,1394.58C1523.58,1394.58 1508.69,1414.17 1508.69,1437.53C1508.69,1457.28 1521.08,1478.12 1544.9,1478.12C1571.08,1478.12 1586.28,1458.06 1586.28,1434.7ZM1529.38,1436.27C1529.38,1420.6 1536.12,1408.53 1547.41,1408.53C1558.69,1408.53 1565.43,1420.6 1565.43,1436.27C1565.43,1451.95 1558.69,1464.17 1547.41,1464.17C1536.12,1464.17 1529.38,1451.95 1529.38,1436.27Z" style="fill:rgb(17,118,162);fill-rule:nonzero;"/>
        <path d="M1666.85,1355.86L1645.22,1358.21L1647.41,1374.05L1647.41,1395.36C1647.41,1395.36 1640.98,1394.58 1638.32,1394.58C1613.87,1394.58 1596.94,1414.64 1596.94,1438C1596.94,1464.02 1611.52,1477.97 1628.29,1477.97C1635.34,1477.97 1644.9,1473.73 1649.76,1468.4C1651.64,1474.36 1655.09,1477.65 1655.09,1477.65L1674.84,1475.46C1674.84,1475.46 1666.85,1466.05 1666.85,1456.65L1666.85,1355.86ZM1633.3,1463.39C1624.84,1463.39 1617.79,1453.67 1617.79,1436.59C1617.79,1420.91 1625.94,1408.53 1635.81,1408.53C1641.92,1408.53 1647.41,1409.47 1647.41,1409.47L1647.41,1456.02C1642.55,1460.25 1637.38,1463.39 1633.3,1463.39Z" style="fill:rgb(17,118,162);fill-rule:nonzero;"/>
        <path d="M1722.65,1394.58C1696.47,1394.58 1685.34,1415.58 1685.34,1438.47C1685.34,1458.69 1697.73,1478.12 1721.08,1478.12C1741.46,1478.12 1754,1466.99 1754,1466.99L1751.17,1451.01C1751.17,1451.01 1738.48,1462.13 1724.84,1462.13C1712.46,1462.13 1706.03,1452.1 1705.25,1439.41L1748.67,1439.41L1752.43,1435.64C1752.12,1423.89 1750.08,1394.58 1722.65,1394.58ZM1720.77,1407.9C1729.07,1407.9 1731.74,1418.09 1732.21,1425.61L1706.03,1425.61C1707.76,1415.74 1712.15,1407.9 1720.77,1407.9Z" style="fill:rgb(17,118,162);fill-rule:nonzero;"/>
        <path d="M1124.67,1614.59C1124.67,1614.59 1136.27,1625.25 1156.64,1625.25C1176.71,1625.25 1189.4,1611.45 1189.4,1593.59C1189.4,1561.45 1144.42,1561.61 1144.42,1543.43C1144.42,1536.22 1151.32,1531.51 1157.11,1531.51C1172.48,1531.51 1182.82,1540.13 1182.82,1540.13L1186.74,1524.46C1181.25,1521.01 1171.07,1516.62 1157.59,1516.62C1137.99,1516.62 1125.77,1530.57 1125.77,1547.5C1125.77,1578.22 1170.28,1579.16 1170.28,1597.03C1170.28,1604.09 1164.17,1610.04 1155.55,1610.04C1139.09,1610.04 1126.24,1597.03 1126.24,1597.03L1124.67,1614.59Z" style="fill:rgb(17,118,162);fill-rule:nonzero;"/>
        <path d="M1282.51,1622.43C1282.51,1622.43 1274.52,1613.02 1274.52,1603.62L1274.52,1541.86L1252.88,1544.21L1255.08,1560.04L1255.08,1599.38C1255.08,1599.38 1247.71,1609.1 1235.02,1609.1C1227.18,1609.1 1225.92,1603.3 1225.92,1589.51L1225.92,1541.86L1204.3,1544.21L1206.49,1560.04L1206.49,1605.18C1206.49,1618.82 1218.25,1625.25 1230.16,1625.25C1246.77,1625.25 1257.12,1614.59 1257.12,1614.59C1258.21,1620.23 1262.13,1625.25 1262.13,1625.25L1282.51,1622.43Z" style="fill:rgb(17,118,162);fill-rule:nonzero;"/>
        <path d="M1418.25,1623.21L1416.53,1610.04L1416.53,1561.77C1416.53,1548.13 1404.77,1541.7 1392.86,1541.7C1375.3,1541.7 1366.06,1552.2 1365.74,1552.67C1361.67,1545.62 1353.05,1541.7 1344.42,1541.7C1335.8,1541.7 1326.4,1545.31 1319.5,1551.58L1319.5,1541.86L1297.87,1544.21L1300.07,1560.04L1300.07,1623.21L1321.23,1623.21L1319.5,1609.73L1319.5,1567.1C1319.5,1567.1 1327.18,1558 1339.1,1558C1347.09,1558 1348.66,1562.71 1348.66,1577.44L1348.66,1623.21L1369.82,1623.21L1368.09,1610.04L1368.09,1566.94C1368.09,1566.94 1375.93,1558 1387.53,1558C1395.52,1558 1397.09,1562.71 1397.09,1577.44L1397.09,1623.21L1418.25,1623.21Z" style="fill:rgb(17,118,162);fill-rule:nonzero;"/>
        <path d="M1559.63,1623.21L1557.91,1610.04L1557.91,1561.77C1557.91,1548.13 1546.15,1541.7 1534.24,1541.7C1516.69,1541.7 1507.44,1552.2 1507.12,1552.67C1503.05,1545.62 1494.43,1541.7 1485.81,1541.7C1477.19,1541.7 1467.78,1545.31 1460.88,1551.58L1460.88,1541.86L1439.25,1544.21L1441.45,1560.04L1441.45,1623.21L1462.61,1623.21L1460.88,1609.73L1460.88,1567.1C1460.88,1567.1 1468.57,1558 1480.48,1558C1488.47,1558 1490.04,1562.71 1490.04,1577.44L1490.04,1623.21L1511.2,1623.21L1509.48,1610.04L1509.48,1566.94C1509.48,1566.94 1517.31,1558 1528.91,1558C1536.91,1558 1538.47,1562.71 1538.47,1577.44L1538.47,1623.21L1559.63,1623.21Z" style="fill:rgb(17,118,162);fill-rule:nonzero;"/>
        <path d="M1601.95,1541.7L1580.32,1544.05L1582.52,1559.88L1582.52,1623.21L1603.68,1623.21L1601.95,1609.73L1601.95,1541.7ZM1580.95,1520.86C1580.95,1526.65 1585.97,1531.36 1591.92,1531.36C1597.57,1531.36 1602.42,1526.65 1602.42,1520.86C1602.42,1514.74 1597.57,1509.88 1591.92,1509.88C1585.97,1509.88 1580.95,1514.74 1580.95,1520.86Z" style="fill:rgb(17,118,162);fill-rule:nonzero;"/>
        <path d="M1649.13,1527.75L1628.13,1530.1L1628.13,1544.05L1618.57,1544.05L1618.57,1558.63L1628.13,1558.63L1628.13,1599.85C1628.13,1618.19 1634.87,1625.25 1648.19,1625.25C1665.28,1625.25 1674.06,1617.25 1674.06,1617.25L1672.02,1600.17C1668.41,1603.3 1659.79,1607.54 1653.99,1607.54C1650.23,1607.54 1647.41,1605.97 1647.41,1600.33L1647.41,1558.63L1665.91,1558.63L1670.92,1544.05L1647.57,1544.05L1649.13,1527.75Z" style="fill:rgb(17,118,162);fill-rule:nonzero;"/>
        <path d="M1785.03,1623.21L1787.07,1606.28L1749.61,1606.28C1749.61,1606.28 1781.27,1579.32 1781.27,1555.81C1781.27,1538.25 1766.85,1529.48 1751.65,1529.48C1740.83,1529.48 1729.86,1533.55 1722.18,1539.98L1730.33,1554.24C1730.33,1554.24 1738.48,1544.68 1749.45,1544.68C1755.09,1544.68 1761.36,1548.91 1761.36,1557.85C1761.36,1573.99 1736.13,1600.01 1722.65,1614.43L1724.69,1623.21L1785.03,1623.21Z" style="fill:rgb(17,118,162);fill-rule:nonzero;"/>
        <path d="M1834.09,1528.69C1808.39,1528.69 1797.41,1549.38 1797.41,1576.66C1797.41,1612.24 1812.31,1625.25 1830.64,1625.25C1858.86,1625.25 1869.05,1603.62 1869.05,1576.81C1869.05,1554.4 1863.56,1528.69 1834.09,1528.69ZM1833.15,1543.74C1844.44,1543.74 1849.14,1556.91 1849.14,1577.44C1849.14,1598.29 1842.4,1610.51 1832.37,1610.51C1821.08,1610.51 1817.63,1595.78 1817.63,1574.93C1817.63,1554.87 1822.81,1543.74 1833.15,1543.74Z" style="fill:rgb(17,118,162);fill-rule:nonzero;"/>
        <path d="M1878.45,1623.21L1934.25,1623.21L1936.45,1608.16L1917.17,1608.16L1917.17,1528.38L1876.73,1541.7L1882.37,1555.65L1897.73,1550.95L1897.73,1608.16L1878.45,1608.16L1878.45,1623.21Z" style="fill:rgb(17,118,162);fill-rule:nonzero;"/>
        <path d="M1975.16,1625.25C1996.32,1625.25 2012.47,1613.02 2012.47,1593.9C2012.47,1583.4 2002.12,1574.46 1991.15,1566C2000.24,1558.94 2008.24,1551.73 2008.24,1538.72C2008.24,1525.56 1995.54,1516.94 1979.24,1516.94C1958.86,1516.94 1947.11,1527.28 1947.11,1544.05C1947.11,1553.3 1954.63,1561.3 1963.56,1568.66C1953.22,1576.66 1943.34,1585.12 1943.34,1598.91C1943.34,1618.82 1961.37,1625.25 1975.16,1625.25ZM1975.16,1576.66C1984.25,1583.87 1992.72,1590.61 1992.72,1597.35C1992.72,1604.56 1984.57,1609.26 1976.57,1609.26C1967.33,1609.26 1962.47,1602.68 1962.47,1596.41C1962.47,1587.79 1968.58,1581.36 1975.16,1576.66ZM1979.87,1557.85C1971.87,1551.89 1965.91,1546.56 1965.91,1540.92C1965.91,1534.18 1970.77,1531.04 1977.51,1531.04C1985.82,1531.04 1989.43,1537 1989.43,1542.02C1989.43,1549.07 1985.19,1553.93 1979.87,1557.85Z" style="fill:rgb(17,118,162);fill-rule:nonzero;"/>
    </g>
    <g transform="matrix(0.141609,0,0,0.141609,-103.322,-181.443)">
        <path d="M1211.04,1382.51C1201,1373.57 1189.25,1369.5 1175.14,1369.5C1145.83,1369.5 1123.1,1392.85 1123.1,1425.93C1123.1,1460.57 1148.02,1478.12 1173.89,1478.12C1194.42,1478.12 1212.76,1471.23 1212.76,1471.23L1212.6,1425.14L1190.03,1425.14L1192.85,1438.62L1192.85,1460.72C1192.85,1460.72 1185.02,1462.76 1176.71,1462.76C1160.41,1462.76 1144.26,1448.81 1144.26,1424.36C1144.26,1403.36 1157.59,1385.02 1175.3,1385.02C1184.55,1385.02 1193.95,1388.62 1202.73,1397.56L1211.04,1382.51Z" style="fill:rgb(68,68,68);fill-rule:nonzero;"/>
        <path d="M1263.54,1394.58C1237.37,1394.58 1226.24,1415.58 1226.24,1438.47C1226.24,1458.69 1238.62,1478.12 1261.98,1478.12C1282.35,1478.12 1294.89,1466.99 1294.89,1466.99L1292.07,1451.01C1292.07,1451.01 1279.38,1462.13 1265.74,1462.13C1253.36,1462.13 1246.93,1452.1 1246.14,1439.41L1289.56,1439.41L1293.33,1435.64C1293.01,1423.89 1290.97,1394.58 1263.54,1394.58ZM1261.66,1407.9C1269.97,1407.9 1272.63,1418.09 1273.11,1425.61L1246.93,1425.61C1248.65,1415.74 1253.04,1407.9 1261.66,1407.9Z" style="fill:rgb(68,68,68);fill-rule:nonzero;"/>
        <path d="M1381.73,1434.7C1381.73,1406.96 1366.21,1394.58 1345.68,1394.58C1319.03,1394.58 1304.14,1414.17 1304.14,1437.53C1304.14,1457.28 1316.52,1478.12 1340.35,1478.12C1366.53,1478.12 1381.73,1458.06 1381.73,1434.7ZM1324.83,1436.27C1324.83,1420.6 1331.57,1408.53 1342.86,1408.53C1354.14,1408.53 1360.88,1420.6 1360.88,1436.27C1360.88,1451.95 1354.14,1464.17 1342.86,1464.17C1331.57,1464.17 1324.83,1451.95 1324.83,1436.27Z" style="fill:rgb(68,68,68);fill-rule:nonzero;"/>
        <path d="M1489.73,1371.38L1469.51,1371.38L1471.7,1387.53L1471.7,1441.6L1465.74,1431.88L1414.33,1371.38L1398.66,1371.38L1400.85,1387.53L1400.85,1476.09L1420.6,1476.09L1418.88,1462.61L1418.88,1406.8L1424.99,1416.68L1477.81,1476.09L1490.82,1476.09L1489.73,1462.61L1489.73,1371.38Z" style="fill:rgb(68,68,68);fill-rule:nonzero;"/>
        <path d="M1586.28,1434.7C1586.28,1406.96 1570.76,1394.58 1550.23,1394.58C1523.58,1394.58 1508.69,1414.17 1508.69,1437.53C1508.69,1457.28 1521.08,1478.12 1544.9,1478.12C1571.08,1478.12 1586.28,1458.06 1586.28,1434.7ZM1529.38,1436.27C1529.38,1420.6 1536.12,1408.53 1547.41,1408.53C1558.69,1408.53 1565.43,1420.6 1565.43,1436.27C1565.43,1451.95 1558.69,1464.17 1547.41,1464.17C1536.12,1464.17 1529.38,1451.95 1529.38,1436.27Z" style="fill:rgb(68,68,68);fill-rule:nonzero;"/>
        <path d="M1666.85,1355.86L1645.22,1358.21L1647.41,1374.05L1647.41,1395.36C1647.41,1395.36 1640.98,1394.58 1638.32,1394.58C1613.87,1394.58 1596.94,1414.64 1596.94,1438C1596.94,1464.02 1611.52,1477.97 1628.29,1477.97C1635.34,1477.97 1644.9,1473.73 1649.76,1468.4C1651.64,1474.36 1655.09,1477.65 1655.09,1477.65L1674.84,1475.46C1674.84,1475.46 1666.85,1466.05 1666.85,1456.65L1666.85,1355.86ZM1633.3,1463.39C1624.84,1463.39 1617.79,1453.67 1617.79,1436.59C1617.79,1420.91 1625.94,1408.53 1635.81,1408.53C1641.92,1408.53 1647.41,1409.47 1647.41,1409.47L1647.41,1456.02C1642.55,1460.25 1637.38,1463.39 1633.3,1463.39Z" style="fill:rgb(68,68,68);fill-rule:nonzero;"/>
        <path d="M1722.65,1394.58C1696.47,1394.58 1685.34,1415.58 1685.34,1438.47C1685.34,1458.69 1697.73,1478.12 1721.08,1478.12C1741.46,1478.12 1754,1466.99 1754,1466.99L1751.17,1451.01C1751.17,1451.01 1738.48,1462.13 1724.84,1462.13C1712.46,1462.13 1706.03,1452.1 1705.25,1439.41L1748.67,1439.41L1752.43,1435.64C1752.12,1423.89 1750.08,1394.58 1722.65,1394.58ZM1720.77,1407.9C1729.07,1407.9 1731.74,1418.09 1732.21,1425.61L1706.03,1425.61C1707.76,1415.74 1712.15,1407.9 1720.77,1407.9Z" style="fill:rgb(68,68,68);fill-rule:nonzero;"/>
        <path d="M1124.67,1614.59C1124.67,1614.59 1136.27,1625.25 1156.64,1625.25C1176.71,1625.25 1189.4,1611.45 1189.4,1593.59C1189.4,1561.45 1144.42,1561.61 1144.42,1543.43C1144.42,1536.22 1151.32,1531.51 1157.11,1531.51C1172.48,1531.51 1182.82,1540.13 1182.82,1540.13L1186.74,1524.46C1181.25,1521.01 1171.07,1516.62 1157.59,1516.62C1137.99,1516.62 1125.77,1530.57 1125.77,1547.5C1125.77,1578.22 1170.28,1579.16 1170.28,1597.03C1170.28,1604.09 1164.17,1610.04 1155.55,1610.04C1139.09,1610.04 1126.24,1597.03 1126.24,1597.03L1124.67,1614.59Z" style="fill:rgb(68,68,68);fill-rule:nonzero;"/>
        <path d="M1282.51,1622.43C1282.51,1622.43 1274.52,1613.02 1274.52,1603.62L1274.52,1541.86L1252.88,1544.21L1255.08,1560.04L1255.08,1599.38C1255.08,1599.38 1247.71,1609.1 1235.02,1609.1C1227.18,1609.1 1225.92,1603.3 1225.92,1589.51L1225.92,1541.86L1204.3,1544.21L1206.49,1560.04L1206.49,1605.18C1206.49,1618.82 1218.25,1625.25 1230.16,1625.25C1246.77,1625.25 1257.12,1614.59 1257.12,1614.59C1258.21,1620.23 1262.13,1625.25 1262.13,1625.25L1282.51,1622.43Z" style="fill:rgb(68,68,68);fill-rule:nonzero;"/>
        <path d="M1418.25,1623.21L1416.53,1610.04L1416.53,1561.77C1416.53,1548.13 1404.77,1541.7 1392.86,1541.7C1375.3,1541.7 1366.06,1552.2 1365.74,1552.67C1361.67,1545.62 1353.05,1541.7 1344.42,1541.7C1335.8,1541.7 1326.4,1545.31 1319.5,1551.58L1319.5,1541.86L1297.87,1544.21L1300.07,1560.04L1300.07,1623.21L1321.23,1623.21L1319.5,1609.73L1319.5,1567.1C1319.5,1567.1 1327.18,1558 1339.1,1558C1347.09,1558 1348.66,1562.71 1348.66,1577.44L1348.66,1623.21L1369.82,1623.21L1368.09,1610.04L1368.09,1566.94C1368.09,1566.94 1375.93,1558 1387.53,1558C1395.52,1558 1397.09,1562.71 1397.09,1577.44L1397.09,1623.21L1418.25,1623.21Z" style="fill:rgb(68,68,68);fill-rule:nonzero;"/>
        <path d="M1559.63,1623.21L1557.91,1610.04L1557.91,1561.77C1557.91,1548.13 1546.15,1541.7 1534.24,1541.7C1516.69,1541.7 1507.44,1552.2 1507.12,1552.67C1503.05,1545.62 1494.43,1541.7 1485.81,1541.7C1477.19,1541.7 1467.78,1545.31 1460.88,1551.58L1460.88,1541.86L1439.25,1544.21L1441.45,1560.04L1441.45,1623.21L1462.61,1623.21L1460.88,1609.73L1460.88,1567.1C1460.88,1567.1 1468.57,1558 1480.48,1558C1488.47,1558 1490.04,1562.71 1490.04,1577.44L1490.04,1623.21L1511.2,1623.21L1509.48,1610.04L1509.48,1566.94C1509.48,1566.94 1517.31,1558 1528.91,1558C1536.91,1558 1538.47,1562.71 1538.47,1577.44L1538.47,1623.21L1559.63,1623.21Z" style="fill:rgb(68,68,68);fill-rule:nonzero;"/>
        <path d="M1601.95,1541.7L1580.32,1544.05L1582.52,1559.88L1582.52,1623.21L1603.68,1623.21L1601.95,1609.73L1601.95,1541.7ZM1580.95,1520.86C1580.95,1526.65 1585.97,1531.36 1591.92,1531.36C1597.57,1531.36 1602.42,1526.65 1602.42,1520.86C1602.42,1514.74 1597.57,1509.88 1591.92,1509.88C1585.97,1509.88 1580.95,1514.74 1580.95,1520.86Z" style="fill:rgb(68,68,68);fill-rule:nonzero;"/>
        <path d="M1649.13,1527.75L1628.13,1530.1L1628.13,1544.05L1618.57,1544.05L1618.57,1558.63L1628.13,1558.63L1628.13,1599.85C1628.13,1618.19 1634.87,1625.25 1648.19,1625.25C1665.28,1625.25 1674.06,1617.25 1674.06,1617.25L1672.02,1600.17C1668.41,1603.3 1659.79,1607.54 1653.99,1607.54C1650.23,1607.54 1647.41,1605.97 1647.41,1600.33L1647.41,1558.63L1665.91,1558.63L1670.92,1544.05L1647.57,1544.05L1649.13,1527.75Z" style="fill:rgb(68,68,68);fill-rule:nonzero;"/>
        <path d="M1785.03,1623.21L1787.07,1606.28L1749.61,1606.28C1749.61,1606.28 1781.27,1579.32 1781.27,1555.81C1781.27,1538.25 1766.85,1529.48 1751.65,1529.48C1740.83,1529.48 1729.86,1533.55 1722.18,1539.98L1730.33,1554.24C1730.33,1554.24 1738.48,1544.68 1749.45,1544.68C1755.09,1544.68 1761.36,1548.91 1761.36,1557.85C1761.36,1573.99 1736.13,1600.01 1722.65,1614.43L1724.69,1623.21L1785.03,1623.21Z" style="fill:rgb(68,68,68);fill-rule:nonzero;"/>
        <path d="M1834.09,1528.69C1808.39,1528.69 1797.41,1549.38 1797.41,1576.66C1797.41,1612.24 1812.31,1625.25 1830.64,1625.25C1858.86,1625.25 1869.05,1603.62 1869.05,1576.81C1869.05,1554.4 1863.56,1528.69 1834.09,1528.69ZM1833.15,1543.74C1844.44,1543.74 1849.14,1556.91 1849.14,1577.44C1849.14,1598.29 1842.4,1610.51 1832.37,1610.51C1821.08,1610.51 1817.63,1595.78 1817.63,1574.93C1817.63,1554.87 1822.81,1543.74 1833.15,1543.74Z" style="fill:rgb(68,68,68);fill-rule:nonzero;"/>
        <path d="M1878.45,1623.21L1934.25,1623.21L1936.45,1608.16L1917.17,1608.16L1917.17,1528.38L1876.73,1541.7L1882.37,1555.65L1897.73,1550.95L1897.73,1608.16L1878.45,1608.16L1878.45,1623.21Z" style="fill:rgb(68,68,68);fill-rule:nonzero;"/>
        <path d="M1975.16,1625.25C1996.32,1625.25 2012.47,1613.02 2012.47,1593.9C2012.47,1583.4 2002.12,1574.46 1991.15,1566C2000.24,1558.94 2008.24,1551.73 2008.24,1538.72C2008.24,1525.56 1995.54,1516.94 1979.24,1516.94C1958.86,1516.94 1947.11,1527.28 1947.11,1544.05C1947.11,1553.3 1954.63,1561.3 1963.56,1568.66C1953.22,1576.66 1943.34,1585.12 1943.34,1598.91C1943.34,1618.82 1961.37,1625.25 1975.16,1625.25ZM1975.16,1576.66C1984.25,1583.87 1992.72,1590.61 1992.72,1597.35C1992.72,1604.56 1984.57,1609.26 1976.57,1609.26C1967.33,1609.26 1962.47,1602.68 1962.47,1596.41C1962.47,1587.79 1968.58,1581.36 1975.16,1576.66ZM1979.87,1557.85C1971.87,1551.89 1965.91,1546.56 1965.91,1540.92C1965.91,1534.18 1970.77,1531.04 1977.51,1531.04C1985.82,1531.04 1989.43,1537 1989.43,1542.02C1989.43,1549.07 1985.19,1553.93 1979.87,1557.85Z" style="fill:rgb(68,68,68);fill-rule:nonzero;"/>
    </g>
</svg>
