<?xml version="1.0" encoding="UTF-8" standalone="no"?>
<!-- Created with Inkscape (http://www.inkscape.org/) -->

<svg
   xmlns:dc="http://purl.org/dc/elements/1.1/"
   xmlns:cc="http://creativecommons.org/ns#"
   xmlns:rdf="http://www.w3.org/1999/02/22-rdf-syntax-ns#"
   xmlns:svg="http://www.w3.org/2000/svg"
   xmlns="http://www.w3.org/2000/svg"
   xmlns:sodipodi="http://sodipodi.sourceforge.net/DTD/sodipodi-0.dtd"
   xmlns:inkscape="http://www.inkscape.org/namespaces/inkscape"
   width="37.911701mm"
   height="47.145203mm"
   viewBox="0 0 37.911701 47.145203"
   version="1.1"
   id="svg8"
   inkscape:version="0.92.3 (2405546, 2018-03-11)"
   sodipodi:docname="logos_without_year.svg">
  <defs
     id="defs2" />
  <sodipodi:namedview
     id="base"
     pagecolor="#ffffff"
     bordercolor="#666666"
     borderopacity="1.0"
     inkscape:pageopacity="0.0"
     inkscape:pageshadow="2"
     inkscape:zoom="4.7590563"
     inkscape:cx="71.644158"
     inkscape:cy="89.093294"
     inkscape:document-units="mm"
     inkscape:current-layer="g4599"
     showgrid="false"
     inkscape:window-width="1920"
     inkscape:window-height="1017"
     inkscape:window-x="1912"
     inkscape:window-y="-8"
     inkscape:window-maximized="1" />
  <metadata
     id="metadata5">
    <rdf:RDF>
      <cc:Work
         rdf:about="">
        <dc:format>image/svg+xml</dc:format>
        <dc:type
           rdf:resource="http://purl.org/dc/dcmitype/StillImage" />
        <dc:title></dc:title>
      </cc:Work>
    </rdf:RDF>
  </metadata>
  <g
     inkscape:label="Ebene 1"
     inkscape:groupmode="layer"
     id="layer1"
     transform="translate(-3.7147104,-2.792629)">
    <g
       style="clip-rule:evenodd;fill-rule:evenodd;stroke-linecap:round;stroke-linejoin:round;stroke-miterlimit:1.41420996"
       id="g212"
       transform="matrix(0.26458333,0,0,0.26458333,-380.56619,-73.180852)">
      <g
         id="g30"
         transform="matrix(0.127596,0,0,0.127596,1394.1606,53.097716)">
        <g
           id="g4"
           transform="matrix(0.936491,0,0,0.921741,414.486,1810.89)">
          <path
             id="path2"
             style="fill:#1177a2;stroke:#1177a2;stroke-width:11.25px"
             d="m 245.854,200 39.712,22.927 v 45.855 l -39.712,22.927 -39.711,-22.927 v -45.855 z"
             inkscape:connector-curvature="0" />
        </g>
        <g
           id="g8"
           transform="translate(444.726,1837.5)">
          <path
             id="path6"
             style="fill:#1177a2;stroke:#1177a2;stroke-width:10.44999981px"
             d="M 237.028,39.108 228.937,119.56 200,142.191 171.063,119.56 c 0,0 -8.252,-77.57 -8.252,-80.452 C 162.811,18.614 179.425,2 199.919,2 c 20.495,0 37.109,16.614 37.109,37.108 z"
             inkscape:connector-curvature="0" />
        </g>
        <g
           id="g12"
           transform="matrix(1,0,0,-1,444.726,2239.5)">
          <path
             id="path10"
             style="fill:#1177a2;stroke:#1177a2;stroke-width:10.44999981px"
             d="M 237.028,39.108 228.937,119.56 200,142.191 171.063,119.56 c 0,0 -8.252,-77.57 -8.252,-80.452 C 162.811,18.614 179.425,2 199.919,2 c 20.495,0 37.109,16.614 37.109,37.108 z"
             inkscape:connector-curvature="0" />
        </g>
        <g
           id="g16"
           transform="matrix(0.5,0.866025,-0.922097,0.532373,724.74,1760.56)">
          <path
             id="path14"
             style="fill:#1177a2;stroke:#1177a2;stroke-width:10.11999989px"
             d="M 237.028,39.108 228.937,119.56 200,142.191 171.063,119.56 c 0,0 -8.252,-77.57 -8.252,-80.452 C 162.811,18.614 179.425,2 199.919,2 c 20.495,0 37.109,16.614 37.109,37.108 z"
             inkscape:connector-curvature="0" />
        </g>
        <g
           id="g20"
           transform="matrix(-0.5,0.866025,0.922097,0.532373,564.552,1760.56)">
          <path
             id="path18"
             style="fill:#1177a2;stroke:#1177a2;stroke-width:10.11999989px"
             d="M 237.028,39.108 228.937,119.56 200,142.191 171.063,119.56 c 0,0 -8.252,-77.57 -8.252,-80.452 C 162.811,18.614 179.425,2 199.919,2 c 20.495,0 37.109,16.614 37.109,37.108 z"
             inkscape:connector-curvature="0" />
        </g>
        <g
           id="g24"
           transform="matrix(0.5,-0.866025,-0.922097,-0.532373,724.74,2316.45)">
          <path
             id="path22"
             style="fill:#1177a2;stroke:#1177a2;stroke-width:10.11999989px"
             d="M 237.028,39.108 228.937,119.56 200,142.191 171.063,119.56 c 0,0 -8.252,-77.57 -8.252,-80.452 C 162.811,18.614 179.425,2 199.919,2 c 20.495,0 37.109,16.614 37.109,37.108 z"
             inkscape:connector-curvature="0" />
        </g>
        <g
           id="g28"
           transform="matrix(-0.5,-0.866025,0.922097,-0.532373,564.713,2316.45)">
          <path
             id="path26"
             style="fill:#1177a2;stroke:#1177a2;stroke-width:10.11999989px"
             d="M 237.028,39.108 228.937,119.56 200,142.191 171.063,119.56 c 0,0 -8.252,-77.57 -8.252,-80.452 C 162.811,18.614 179.425,2 199.919,2 c 20.495,0 37.109,16.614 37.109,37.108 z"
             inkscape:connector-curvature="0" />
        </g>
      </g>
      <g
         id="g60"
         transform="matrix(0.127596,0,0,0.127596,1394.1606,179.16772)">
        <g
           id="g34"
           transform="matrix(0.936491,0,0,0.921741,414.486,1810.89)">
          <path
             id="path32"
             style="fill:#1177a2;stroke:#1177a2;stroke-width:11.25px"
             d="m 245.854,200 39.712,22.927 v 45.855 l -39.712,22.927 -39.711,-22.927 v -45.855 z"
             inkscape:connector-curvature="0" />
        </g>
        <g
           id="g38"
           transform="translate(444.726,1837.5)">
          <path
             id="path36"
             style="fill:#1177a2;stroke:#1177a2;stroke-width:10.44999981px"
             d="M 237.028,39.108 228.937,119.56 200,142.191 171.063,119.56 c 0,0 -8.252,-77.57 -8.252,-80.452 C 162.811,18.614 179.425,2 199.919,2 c 20.495,0 37.109,16.614 37.109,37.108 z"
             inkscape:connector-curvature="0" />
        </g>
        <g
           id="g42"
           transform="matrix(1,0,0,-1,444.726,2239.5)">
          <path
             id="path40"
             style="fill:#1177a2;stroke:#1177a2;stroke-width:10.44999981px"
             d="M 237.028,39.108 228.937,119.56 200,142.191 171.063,119.56 c 0,0 -8.252,-77.57 -8.252,-80.452 C 162.811,18.614 179.425,2 199.919,2 c 20.495,0 37.109,16.614 37.109,37.108 z"
             inkscape:connector-curvature="0" />
        </g>
        <g
           id="g46"
           transform="matrix(0.5,0.866025,-0.922097,0.532373,724.74,1760.56)">
          <path
             id="path44"
             style="fill:#1177a2;stroke:#1177a2;stroke-width:10.11999989px"
             d="M 237.028,39.108 228.937,119.56 200,142.191 171.063,119.56 c 0,0 -8.252,-77.57 -8.252,-80.452 C 162.811,18.614 179.425,2 199.919,2 c 20.495,0 37.109,16.614 37.109,37.108 z"
             inkscape:connector-curvature="0" />
        </g>
        <g
           id="g50"
           transform="matrix(-0.5,0.866025,0.922097,0.532373,564.552,1760.56)">
          <path
             id="path48"
             style="fill:#1177a2;stroke:#1177a2;stroke-width:10.11999989px"
             d="M 237.028,39.108 228.937,119.56 200,142.191 171.063,119.56 c 0,0 -8.252,-77.57 -8.252,-80.452 C 162.811,18.614 179.425,2 199.919,2 c 20.495,0 37.109,16.614 37.109,37.108 z"
             inkscape:connector-curvature="0" />
        </g>
        <g
           id="g54"
           transform="matrix(0.5,-0.866025,-0.922097,-0.532373,724.74,2316.45)">
          <path
             id="path52"
             style="fill:#1177a2;stroke:#1177a2;stroke-width:10.11999989px"
             d="M 237.028,39.108 228.937,119.56 200,142.191 171.063,119.56 c 0,0 -8.252,-77.57 -8.252,-80.452 C 162.811,18.614 179.425,2 199.919,2 c 20.495,0 37.109,16.614 37.109,37.108 z"
             inkscape:connector-curvature="0" />
        </g>
        <g
           id="g58"
           transform="matrix(-0.5,-0.866025,0.922097,-0.532373,564.713,2316.45)">
          <path
             id="path56"
             style="fill:#1177a2;stroke:#1177a2;stroke-width:10.11999989px"
             d="M 237.028,39.108 228.937,119.56 200,142.191 171.063,119.56 c 0,0 -8.252,-77.57 -8.252,-80.452 C 162.811,18.614 179.425,2 199.919,2 c 20.495,0 37.109,16.614 37.109,37.108 z"
             inkscape:connector-curvature="0" />
        </g>
      </g>
      <g
         id="g126"
         transform="matrix(0.127596,0,0,0.127596,1394.1606,115.65072)">
        <g
           id="g100"
           transform="matrix(0.936491,0,0,0.921741,414.486,1810.89)">
          <path
             id="path98"
             style="fill:#444444;stroke:#444444;stroke-width:11.25px"
             d="m 245.854,200 39.712,22.927 v 45.855 l -39.712,22.927 -39.711,-22.927 v -45.855 z"
             inkscape:connector-curvature="0" />
        </g>
        <g
           id="g104"
           transform="translate(444.726,1837.5)">
          <path
             id="path102"
             style="fill:#444444;stroke:#444444;stroke-width:10.44999981px"
             d="M 237.028,39.108 228.937,119.56 200,142.191 171.063,119.56 c 0,0 -8.252,-77.57 -8.252,-80.452 C 162.811,18.614 179.425,2 199.919,2 c 20.495,0 37.109,16.614 37.109,37.108 z"
             inkscape:connector-curvature="0" />
        </g>
        <g
           id="g108"
           transform="matrix(1,0,0,-1,444.726,2239.5)">
          <path
             id="path106"
             style="fill:#444444;stroke:#444444;stroke-width:10.44999981px"
             d="M 237.028,39.108 228.937,119.56 200,142.191 171.063,119.56 c 0,0 -8.252,-77.57 -8.252,-80.452 C 162.811,18.614 179.425,2 199.919,2 c 20.495,0 37.109,16.614 37.109,37.108 z"
             inkscape:connector-curvature="0" />
        </g>
        <g
           id="g112"
           transform="matrix(0.5,0.866025,-0.922097,0.532373,724.74,1760.56)">
          <path
             id="path110"
             style="fill:#444444;stroke:#444444;stroke-width:10.11999989px"
             d="M 237.028,39.108 228.937,119.56 200,142.191 171.063,119.56 c 0,0 -8.252,-77.57 -8.252,-80.452 C 162.811,18.614 179.425,2 199.919,2 c 20.495,0 37.109,16.614 37.109,37.108 z"
             inkscape:connector-curvature="0" />
        </g>
        <g
           id="g116"
           transform="matrix(-0.5,0.866025,0.922097,0.532373,564.552,1760.56)">
          <path
             id="path114"
             style="fill:#444444;stroke:#444444;stroke-width:10.11999989px"
             d="M 237.028,39.108 228.937,119.56 200,142.191 171.063,119.56 c 0,0 -8.252,-77.57 -8.252,-80.452 C 162.811,18.614 179.425,2 199.919,2 c 20.495,0 37.109,16.614 37.109,37.108 z"
             inkscape:connector-curvature="0" />
        </g>
        <g
           id="g120"
           transform="matrix(0.5,-0.866025,-0.922097,-0.532373,724.74,2316.45)">
          <path
             id="path118"
             style="fill:#444444;stroke:#444444;stroke-width:10.11999989px"
             d="M 237.028,39.108 228.937,119.56 200,142.191 171.063,119.56 c 0,0 -8.252,-77.57 -8.252,-80.452 C 162.811,18.614 179.425,2 199.919,2 c 20.495,0 37.109,16.614 37.109,37.108 z"
             inkscape:connector-curvature="0" />
        </g>
        <g
           id="g124"
           transform="matrix(-0.5,-0.866025,0.922097,-0.532373,564.713,2316.45)">
          <path
             id="path122"
             style="fill:#444444;stroke:#444444;stroke-width:10.11999989px"
             d="M 237.028,39.108 228.937,119.56 200,142.191 171.063,119.56 c 0,0 -8.252,-77.57 -8.252,-80.452 C 162.811,18.614 179.425,2 199.919,2 c 20.495,0 37.109,16.614 37.109,37.108 z"
             inkscape:connector-curvature="0" />
        </g>
      </g>
      <g
         id="g4637"
         transform="translate(1450.5791,282.84272)">
        <path
           inkscape:connector-curvature="0"
           id="path164"
           style="fill:#444444;fill-rule:nonzero;stroke-width:0.141609"
           d="m 68.172163,14.332859 c -1.421754,-1.265985 -3.08566,-1.842333 -5.083763,-1.842333 -4.15056,0 -7.369332,3.30657 -7.369332,7.990995 0,4.905336 3.528896,7.390574 7.192321,7.390574 2.907233,0 5.504342,-0.975686 5.504342,-0.975686 l -0.02266,-6.526759 h -3.196115 l 0.399338,1.90889 v 3.129558 c 0,0 -1.108799,0.288883 -2.28557,0.288883 -2.308226,0 -4.595212,-1.975446 -4.595212,-5.437786 0,-2.973789 1.887648,-5.570898 4.395544,-5.570898 1.309883,0 2.641008,0.509793 3.884335,1.775777 z" />
        <path
           inkscape:connector-curvature="0"
           id="path166"
           style="fill:#444444;fill-rule:nonzero;stroke-width:0.141609"
           d="m 75.606636,16.042079 c -3.705908,0 -5.282016,2.973789 -5.282016,6.215219 0,2.863334 1.75312,5.614797 5.061106,5.614797 2.884575,0 4.660352,-1.576108 4.660352,-1.576108 l -0.399337,-2.262912 c 0,0 -1.797019,1.574692 -3.728565,1.574692 -1.75312,0 -2.663666,-1.420338 -2.775537,-3.217356 h 6.148663 l 0.533866,-0.533866 c -0.04532,-1.663906 -0.334197,-5.814466 -4.218532,-5.814466 z m -0.266225,1.886232 c 1.176771,0 1.553451,1.442996 1.621423,2.507895 H 73.25451 c 0.243568,-1.39768 0.865231,-2.507895 2.085901,-2.507895 z" />
        <path
           inkscape:connector-curvature="0"
           id="path168"
           style="fill:#444444;fill-rule:nonzero;stroke-width:0.141609"
           d="m 92.343404,21.723432 c 0,-3.928233 -2.197772,-5.681353 -5.105005,-5.681353 -3.77388,0 -5.882438,2.774121 -5.882438,6.082107 0,2.796778 1.75312,5.747909 5.127662,5.747909 3.707324,0 5.859781,-2.840676 5.859781,-6.148663 z m -8.057553,0.222326 c 0,-2.219013 0.954445,-3.928233 2.553211,-3.928233 1.597349,0 2.551794,1.70922 2.551794,3.928233 0,2.22043 -0.954445,3.950892 -2.551794,3.950892 -1.598766,0 -2.553211,-1.730462 -2.553211,-3.950892 z" />
        <path
           inkscape:connector-curvature="0"
           id="path170"
           style="fill:#444444;fill-rule:nonzero;stroke-width:0.141609"
           d="m 107.63718,12.75675 h -2.86334 l 0.31013,2.286986 v 7.656798 l -0.84399,-1.376439 -7.280123,-8.567345 h -2.219013 l 0.310124,2.286986 v 12.540893 h 2.796777 l -0.243567,-1.90889 v -7.903198 l 0.865231,1.399097 7.479791,8.412991 h 1.84233 l -0.15435,-1.90889 z" />
        <path
           inkscape:connector-curvature="0"
           id="path172"
           style="fill:#444444;fill-rule:nonzero;stroke-width:0.141609"
           d="m 121.30952,21.723432 c 0,-3.928233 -2.19777,-5.681353 -5.105,-5.681353 -3.77388,0 -5.88244,2.774121 -5.88244,6.082107 0,2.796778 1.75454,5.747909 5.12766,5.747909 3.70733,0 5.85978,-2.840676 5.85978,-6.148663 z m -8.05755,0.222326 c 0,-2.219013 0.95445,-3.928233 2.55321,-3.928233 1.59735,0 2.5518,1.70922 2.5518,3.928233 0,2.22043 -0.95445,3.950892 -2.5518,3.950892 -1.59876,0 -2.55321,-1.730462 -2.55321,-3.950892 z" />
        <path
           inkscape:connector-curvature="0"
           id="path174"
           style="fill:#444444;fill-rule:nonzero;stroke-width:0.141609"
           d="m 132.71896,10.558979 -3.063,0.332781 0.31012,2.243086 v 3.017688 c 0,0 -0.91054,-0.110455 -1.28722,-0.110455 -3.46234,0 -5.85978,2.840677 -5.85978,6.148663 0,3.684666 2.06466,5.660112 4.43944,5.660112 0.99834,0 2.35212,-0.600422 3.04034,-1.355198 0.26623,0.843989 0.75478,1.309883 0.75478,1.309883 l 2.79678,-0.310124 c 0,0 -1.13146,-1.332541 -1.13146,-2.663665 z m -4.75098,15.227216 c -1.19801,0 -2.19636,-1.37644 -2.19636,-3.795122 0,-2.220429 1.15412,-3.973548 2.5518,-3.973548 0.86523,0 1.64266,0.133112 1.64266,0.133112 v 6.591899 c -0.68822,0.599006 -1.42034,1.043659 -1.9981,1.043659 z" />
        <path
           inkscape:connector-curvature="0"
           id="path176"
           style="fill:#444444;fill-rule:nonzero;stroke-width:0.141609"
           d="m 140.62074,16.042079 c -3.70732,0 -5.28343,2.973789 -5.28343,6.215219 0,2.863334 1.75454,5.614797 5.06111,5.614797 2.88599,0 4.66177,-1.576108 4.66177,-1.576108 l -0.40076,-2.262912 c 0,0 -1.79702,1.574692 -3.72856,1.574692 -1.75312,0 -2.66367,-1.420338 -2.77412,-3.217356 h 6.14866 l 0.53245,-0.533866 c -0.0439,-1.663906 -0.33278,-5.814466 -4.21712,-5.814466 z m -0.26622,1.886232 c 1.17535,0 1.55345,1.442996 1.62001,2.507895 h -3.70733 c 0.24499,-1.39768 0.86665,-2.507895 2.08732,-2.507895 z" />
        <path
           inkscape:connector-curvature="0"
           id="path4855"
           style="font-style:normal;font-variant:normal;font-weight:normal;font-stretch:normal;font-size:20px;line-height:1.25;font-family:'Noto Sans';-inkscape-font-specification:'Noto Sans';letter-spacing:0px;word-spacing:0px;fill:#444444;fill-opacity:1;stroke:none"
           d="m 64.73906,44.687027 q 0,1.9 -1.38,2.96 -1.38,1.06 -3.72,1.06 -1.2,0 -2.22,-0.18 -1.02,-0.18 -1.7,-0.5 v -1.72 q 0.72,0.32 1.78,0.58 1.08,0.26 2.22,0.26 1.58,0 2.4,-0.62 0.82,-0.62 0.82,-1.68 0,-0.7 -0.3,-1.18 -0.3,-0.48 -1.04,-0.88 -0.74,-0.4 -2.02,-0.88 -1.84,-0.66 -2.76,-1.62 -0.92,-0.96 -0.92,-2.62 0,-1.12 0.58,-1.94 0.58001,-0.82 1.6,-1.26 1.02,-0.44 2.38,-0.44 1.16,0 2.14,0.22 0.98,0.22 1.8,0.58 l -0.56,1.54 q -0.74,-0.32 -1.62,-0.54 -0.88,-0.22 -1.8,-0.22 -1.34,0 -2.02,0.58 -0.68,0.56 -0.68,1.5 0,0.72 0.3,1.2 0.3,0.48 0.98,0.88 0.68,0.38 1.84,0.8 1.26,0.46 2.12,1 0.88,0.52 1.32,1.26 0.46,0.74 0.46,1.86 z" />
        <path
           inkscape:connector-curvature="0"
           id="path4857"
           style="font-style:normal;font-variant:normal;font-weight:normal;font-stretch:normal;font-size:20px;line-height:1.25;font-family:'Noto Sans';-inkscape-font-specification:'Noto Sans';letter-spacing:0px;word-spacing:0px;fill:#444444;fill-opacity:1;stroke:none"
           d="m 76.37469,37.787027 v 10.72 h -1.44 l -0.26,-1.42 h -0.08 q -0.52,0.84 -1.44,1.24 -0.92,0.38 -1.96,0.38 -1.94,0 -2.92,-0.92 -0.98,-0.94 -0.98,-2.98 v -7.02 h 1.78 v 6.9 q 0,2.56 2.38,2.56 1.78,0 2.46,-1 0.7,-1 0.7,-2.88 v -5.58 z" />
        <path
           inkscape:connector-curvature="0"
           id="path4859"
           style="font-style:normal;font-variant:normal;font-weight:normal;font-stretch:normal;font-size:20px;line-height:1.25;font-family:'Noto Sans';-inkscape-font-specification:'Noto Sans';letter-spacing:0px;word-spacing:0px;fill:#444444;fill-opacity:1;stroke:none"
           d="m 91.51844,37.587027 q 1.82,0 2.72,0.94 0.9,0.94 0.9,3 v 6.98 h -1.74 v -6.9 q 0,-2.54 -2.18,-2.54 -1.56,0 -2.24,0.9 -0.66,0.9 -0.66,2.62 v 5.92 h -1.74 v -6.9 q 0,-2.54 -2.2,-2.54 -1.62,0 -2.24,1 -0.62,1 -0.62,2.88 v 5.56 h -1.76 v -10.72 h 1.42 l 0.26,1.46 h 0.1 q 0.5,-0.84 1.34,-1.24 0.86,-0.42 1.82,-0.42 2.52,0 3.28,1.8 h 0.1 q 0.54,-0.92 1.46,-1.36 0.92,-0.44 1.98,-0.44 z" />
        <path
           inkscape:connector-curvature="0"
           id="path4861"
           style="font-style:normal;font-variant:normal;font-weight:normal;font-stretch:normal;font-size:20px;line-height:1.25;font-family:'Noto Sans';-inkscape-font-specification:'Noto Sans';letter-spacing:0px;word-spacing:0px;fill:#444444;fill-opacity:1;stroke:none"
           d="m 110.19031,37.587027 q 1.82,0 2.72,0.94 0.9,0.94 0.9,3 v 6.98 h -1.74 v -6.9 q 0,-2.54 -2.18,-2.54 -1.56,0 -2.23999,0.9 -0.66001,0.9 -0.66001,2.62 v 5.92 h -1.74 v -6.9 q 0,-2.54 -2.2,-2.54 -1.62,0 -2.24,1 -0.62,1 -0.62,2.88 v 5.56 h -1.76 v -10.72 h 1.42 l 0.26,1.46 h 0.1 q 0.5,-0.84 1.34,-1.24 0.86,-0.42 1.82,-0.42 2.52,0 3.28,1.8 h 0.1 q 0.54,-0.92 1.46,-1.36 0.92,-0.44 1.98,-0.44 z" />
        <path
           inkscape:connector-curvature="0"
           id="path4863"
           style="font-style:normal;font-variant:normal;font-weight:normal;font-stretch:normal;font-size:20px;line-height:1.25;font-family:'Noto Sans';-inkscape-font-specification:'Noto Sans';letter-spacing:0px;word-spacing:0px;fill:#444444;fill-opacity:1;stroke:none"
           d="m 118.00219,33.767027 q 0.4,0 0.7,0.28 0.32,0.26 0.32,0.84 0,0.58 -0.32,0.86 -0.3,0.26 -0.7,0.26 -0.44,0 -0.74,-0.26 -0.3,-0.28 -0.3,-0.86 0,-0.58 0.3,-0.84 0.3,-0.28 0.74,-0.28 z m 0.86,4.02 v 10.72 h -1.76 v -10.72 z" />
        <path
           inkscape:connector-curvature="0"
           id="path4865"
           style="font-style:normal;font-variant:normal;font-weight:normal;font-stretch:normal;font-size:20px;line-height:1.25;font-family:'Noto Sans';-inkscape-font-specification:'Noto Sans';letter-spacing:0px;word-spacing:0px;fill:#444444;fill-opacity:1;stroke:none"
           d="m 125.83844,47.267027 q 0.4,0 0.82,-0.06 0.42,-0.06 0.68,-0.16 v 1.34 q -0.28,0.14 -0.8,0.22 -0.52,0.1 -1,0.1 -0.84,0 -1.56,-0.28 -0.7,-0.3 -1.14,-1.02 -0.44,-0.72 -0.44,-2.02 v -6.24 h -1.52 v -0.84 l 1.54,-0.7 0.7,-2.28 h 1.04 v 2.46 h 3.1 v 1.36 h -3.1 v 6.2 q 0,0.98 0.46,1.46 0.48,0.46 1.22,0.46 z" />
      </g>
      <g
         id="g4618"
         transform="translate(1450.5791,282.84272)">
        <path
           inkscape:connector-curvature="0"
           id="path62"
           style="fill:#444444;fill-rule:nonzero;stroke-width:0.14168499"
           d="m 68.180202,76.802929 c -1.422517,-1.266664 -3.087316,-1.843321 -5.086491,-1.843321 -4.152787,0 -7.373288,3.308344 -7.373288,7.995284 0,4.907968 3.530791,7.39454 7.196182,7.39454 2.908793,0 5.507296,-0.976209 5.507296,-0.976209 l -0.02267,-6.530262 h -3.19783 l 0.399551,1.909914 v 3.131238 c 0,0 -1.109393,0.289038 -2.286796,0.289038 -2.309465,0 -4.597678,-1.976506 -4.597678,-5.440704 0,-2.975385 1.888661,-5.573888 4.397902,-5.573888 1.310587,0 2.642426,0.510066 3.88642,1.77673 z" />
        <path
           inkscape:connector-curvature="0"
           id="path64"
           style="fill:#444444;fill-rule:nonzero;stroke-width:0.14168499"
           d="m 75.618665,78.513067 c -3.707897,0 -5.284851,2.975385 -5.284851,6.218555 0,2.864871 1.754061,5.61781 5.063822,5.61781 2.886124,0 4.662854,-1.576954 4.662854,-1.576954 l -0.399552,-2.264126 c 0,0 -1.797983,1.575537 -3.730566,1.575537 -1.75406,0 -2.665095,-1.4211 -2.777026,-3.219083 h 6.151963 l 0.534152,-0.534153 c -0.04534,-1.664798 -0.334377,-5.817586 -4.220796,-5.817586 z m -0.266368,1.887245 c 1.177402,0 1.554285,1.44377 1.622293,2.509241 h -3.709313 c 0.243698,-1.398431 0.865695,-2.509241 2.08702,-2.509241 z" />
        <path
           inkscape:connector-curvature="0"
           id="path66"
           style="fill:#444444;fill-rule:nonzero;stroke-width:0.14168499"
           d="m 92.364415,84.19747 c 0,-3.930342 -2.198951,-5.684403 -5.107744,-5.684403 -3.775905,0 -5.885595,2.775609 -5.885595,6.085371 0,2.798279 1.75406,5.750994 5.130414,5.750994 3.709313,0 5.862925,-2.842201 5.862925,-6.151962 z m -8.061876,0.222445 c 0,-2.220204 0.954956,-3.930342 2.55458,-3.930342 1.598207,0 2.553164,1.710138 2.553164,3.930342 0,2.221621 -0.954957,3.953011 -2.553164,3.953011 -1.599624,0 -2.55458,-1.73139 -2.55458,-3.953011 z" />
        <path
           inkscape:connector-curvature="0"
           id="path68"
           style="fill:#444444;fill-rule:nonzero;stroke-width:0.14168499"
           d="m 107.6664,75.225975 h -2.86488 l 0.31029,2.288213 v 7.660908 l -0.84444,-1.377178 -7.284024,-8.571943 h -2.220204 l 0.31029,2.288213 v 12.547624 h 2.798279 l -0.243698,-1.909914 v -7.90744 l 0.865695,1.399848 7.483802,8.417506 h 1.84332 l -0.15443,-1.909914 z" />
        <path
           inkscape:connector-curvature="0"
           id="path70"
           style="fill:#444444;fill-rule:nonzero;stroke-width:0.14168499"
           d="m 121.34608,84.19747 c 0,-3.930342 -2.19895,-5.684403 -5.10774,-5.684403 -3.77591,0 -5.8856,2.775609 -5.8856,6.085371 0,2.798279 1.75548,5.750994 5.13042,5.750994 3.70931,0 5.86292,-2.842201 5.86292,-6.151962 z m -8.06187,0.222445 c 0,-2.220204 0.95495,-3.930342 2.55458,-3.930342 1.5982,0 2.55316,1.710138 2.55316,3.930342 0,2.221621 -0.95496,3.953011 -2.55316,3.953011 -1.59963,0 -2.55458,-1.73139 -2.55458,-3.953011 z" />
        <path
           inkscape:connector-curvature="0"
           id="path72"
           style="fill:#444444;fill-rule:nonzero;stroke-width:0.14168499"
           d="m 132.76164,73.027024 -3.06464,0.33296 0.31029,2.24429 v 3.019308 c 0,0 -0.91104,-0.110515 -1.28792,-0.110515 -3.4642,0 -5.86293,2.842201 -5.86293,6.151963 0,3.686644 2.06577,5.663149 4.44183,5.663149 0.99888,0 2.35339,-0.600744 3.04198,-1.355925 0.26636,0.844443 0.75518,1.310586 0.75518,1.310586 l 2.79828,-0.31029 c 0,0 -1.13207,-1.333256 -1.13207,-2.665095 z m -4.75353,15.235388 c -1.19865,0 -2.19753,-1.377178 -2.19753,-3.797158 0,-2.221621 1.15473,-3.975681 2.55316,-3.975681 0.8657,0 1.64355,0.133184 1.64355,0.133184 v 6.595437 c -0.68859,0.599327 -1.4211,1.044218 -1.99918,1.044218 z" />
        <path
           inkscape:connector-curvature="0"
           id="path74"
           style="fill:#444444;fill-rule:nonzero;stroke-width:0.14168499"
           d="m 140.66767,78.513067 c -3.70932,0 -5.28627,2.975385 -5.28627,6.218555 0,2.864871 1.75548,5.61781 5.06382,5.61781 2.88754,0 4.66427,-1.576954 4.66427,-1.576954 l -0.40097,-2.264126 c 0,0 -1.79798,1.575537 -3.73056,1.575537 -1.75406,0 -2.6651,-1.4211 -2.77561,-3.219083 h 6.15196 l 0.53273,-0.534153 c -0.0439,-1.664798 -0.33296,-5.817586 -4.21937,-5.817586 z m -0.26637,1.887245 c 1.17598,0 1.55428,1.44377 1.62087,2.509241 h -3.70931 c 0.24512,-1.398431 0.86711,-2.509241 2.08844,-2.509241 z" />
        <path
           inkscape:connector-curvature="0"
           id="path4886"
           style="font-style:normal;font-variant:normal;font-weight:normal;font-stretch:normal;font-size:20px;line-height:1.25;font-family:'Noto Sans';-inkscape-font-specification:'Noto Sans';letter-spacing:0px;word-spacing:0px;clip-rule:evenodd;fill:#444444;fill-opacity:1;fill-rule:evenodd;stroke:none;stroke-linecap:round;stroke-linejoin:round;stroke-miterlimit:1.41420996"
           d="m 64.74042,107.17555 q 0,1.9 -1.38,2.96 -1.38,1.06 -3.72,1.06 -1.2,0 -2.22,-0.18 -1.02,-0.18 -1.7,-0.5 v -1.72 q 0.72,0.32 1.78,0.58 1.08,0.26 2.22,0.26 1.58,0 2.4,-0.62 0.82,-0.62 0.82,-1.68 0,-0.7 -0.3,-1.18 -0.3,-0.48 -1.04,-0.88 -0.74,-0.4 -2.02,-0.88 -1.84,-0.66 -2.76,-1.62 -0.92,-0.96 -0.92,-2.62 0,-1.120004 0.58,-1.940004 0.58001,-0.82 1.6,-1.26 1.02,-0.44 2.38,-0.44 1.16,0 2.14,0.22 0.98,0.22 1.8,0.58 l -0.56,1.54 q -0.74,-0.32 -1.62,-0.54 -0.88,-0.22 -1.8,-0.22 -1.34,0 -2.02,0.58 -0.68,0.56 -0.68,1.500004 0,0.72 0.3,1.2 0.3,0.48 0.98,0.88 0.68,0.38 1.84,0.8 1.26,0.46 2.12,1 0.88,0.52 1.32,1.26 0.46,0.74 0.46,1.86 z" />
        <path
           inkscape:connector-curvature="0"
           id="path4888"
           style="font-style:normal;font-variant:normal;font-weight:normal;font-stretch:normal;font-size:20px;line-height:1.25;font-family:'Noto Sans';-inkscape-font-specification:'Noto Sans';letter-spacing:0px;word-spacing:0px;clip-rule:evenodd;fill:#444444;fill-opacity:1;fill-rule:evenodd;stroke:none;stroke-linecap:round;stroke-linejoin:round;stroke-miterlimit:1.41420996"
           d="m 76.37605,100.27555 v 10.72 h -1.44 l -0.26,-1.42 h -0.08 q -0.52,0.84 -1.44,1.24 -0.92,0.38 -1.96,0.38 -1.94,0 -2.92,-0.92 -0.98,-0.94 -0.98,-2.98 v -7.02 h 1.78 v 6.9 q 0,2.56 2.38,2.56 1.78,0 2.46,-1 0.7,-1 0.7,-2.88 v -5.58 z" />
        <path
           inkscape:connector-curvature="0"
           id="path4890"
           style="font-style:normal;font-variant:normal;font-weight:normal;font-stretch:normal;font-size:20px;line-height:1.25;font-family:'Noto Sans';-inkscape-font-specification:'Noto Sans';letter-spacing:0px;word-spacing:0px;clip-rule:evenodd;fill:#444444;fill-opacity:1;fill-rule:evenodd;stroke:none;stroke-linecap:round;stroke-linejoin:round;stroke-miterlimit:1.41420996"
           d="m 91.5198,100.07555 q 1.82,0 2.72,0.94 0.9,0.94 0.9,3 v 6.98 h -1.74 v -6.9 q 0,-2.54 -2.18,-2.54 -1.56,0 -2.24,0.9 -0.66,0.9 -0.66,2.62 v 5.92 h -1.74 v -6.9 q 0,-2.54 -2.2,-2.54 -1.62,0 -2.24,1 -0.62,1 -0.62,2.88 v 5.56 h -1.76 v -10.72 h 1.42 l 0.26,1.46 h 0.1 q 0.5,-0.84 1.34,-1.24 0.86,-0.42 1.82,-0.42 2.52,0 3.28,1.8 h 0.1 q 0.54,-0.92 1.46,-1.36 0.92,-0.44 1.98,-0.44 z" />
        <path
           inkscape:connector-curvature="0"
           id="path4892"
           style="font-style:normal;font-variant:normal;font-weight:normal;font-stretch:normal;font-size:20px;line-height:1.25;font-family:'Noto Sans';-inkscape-font-specification:'Noto Sans';letter-spacing:0px;word-spacing:0px;clip-rule:evenodd;fill:#444444;fill-opacity:1;fill-rule:evenodd;stroke:none;stroke-linecap:round;stroke-linejoin:round;stroke-miterlimit:1.41420996"
           d="m 110.19167,100.07555 q 1.82,0 2.72,0.94 0.9,0.94 0.9,3 v 6.98 h -1.74 v -6.9 q 0,-2.54 -2.18,-2.54 -1.56,0 -2.23999,0.9 -0.66001,0.9 -0.66001,2.62 v 5.92 h -1.74 v -6.9 q 0,-2.54 -2.2,-2.54 -1.62,0 -2.24,1 -0.62,1 -0.62,2.88 v 5.56 h -1.76 v -10.72 h 1.42 l 0.26,1.46 h 0.1 q 0.5,-0.84 1.34,-1.24 0.86,-0.42 1.82,-0.42 2.52,0 3.28,1.8 h 0.1 q 0.54,-0.92 1.46,-1.36 0.92,-0.44 1.98,-0.44 z" />
        <path
           inkscape:connector-curvature="0"
           id="path4894"
           style="font-style:normal;font-variant:normal;font-weight:normal;font-stretch:normal;font-size:20px;line-height:1.25;font-family:'Noto Sans';-inkscape-font-specification:'Noto Sans';letter-spacing:0px;word-spacing:0px;clip-rule:evenodd;fill:#444444;fill-opacity:1;fill-rule:evenodd;stroke:none;stroke-linecap:round;stroke-linejoin:round;stroke-miterlimit:1.41420996"
           d="m 118.00355,96.255546 q 0.4,0 0.7,0.28 0.32,0.26 0.32,0.84 0,0.58 -0.32,0.86 -0.3,0.26 -0.7,0.26 -0.44,0 -0.74,-0.26 -0.3,-0.28 -0.3,-0.86 0,-0.58 0.3,-0.84 0.3,-0.28 0.74,-0.28 z m 0.86,4.020004 v 10.72 h -1.76 v -10.72 z" />
        <path
           inkscape:connector-curvature="0"
           id="path4896"
           style="font-style:normal;font-variant:normal;font-weight:normal;font-stretch:normal;font-size:20px;line-height:1.25;font-family:'Noto Sans';-inkscape-font-specification:'Noto Sans';letter-spacing:0px;word-spacing:0px;clip-rule:evenodd;fill:#444444;fill-opacity:1;fill-rule:evenodd;stroke:none;stroke-linecap:round;stroke-linejoin:round;stroke-miterlimit:1.41420996"
           d="m 125.8398,109.75555 q 0.4,0 0.82,-0.06 0.42,-0.06 0.68,-0.16 v 1.34 q -0.28,0.14 -0.8,0.22 -0.52,0.1 -1,0.1 -0.84,0 -1.56,-0.28 -0.7,-0.3 -1.14,-1.02 -0.44,-0.72 -0.44,-2.02 v -6.24 h -1.52 v -0.84 l 1.54,-0.7 0.7,-2.280004 h 1.04 v 2.460004 h 3.1 v 1.36 h -3.1 v 6.2 q 0,0.98 0.46,1.46 0.48,0.46 1.22,0.46 z" />
      </g>
      <g
         id="g4599">
        <path
           inkscape:connector-curvature="0"
           id="path128"
           style="fill:#1176a2;fill-rule:nonzero;stroke-width:0.14167801"
           d="m 1518.7588,423.32787 c -1.4225,-1.2666 -3.0872,-1.84323 -5.0862,-1.84323 -4.1526,0 -7.373,3.30818 -7.373,7.99489 0,4.90773 3.5306,7.39418 7.1959,7.39418 2.9086,0 5.507,-0.97617 5.507,-0.97617 l -0.023,-6.52994 h -3.1977 l 0.3996,1.90982 v 3.13109 c 0,0 -1.1094,0.28902 -2.2867,0.28902 -2.3094,0 -4.5975,-1.97641 -4.5975,-5.44043 0,-2.97524 1.8886,-5.57362 4.3977,-5.57362 1.3105,0 2.6423,0.51004 3.8863,1.77665 z" />
        <path
           inkscape:connector-curvature="0"
           id="path130"
           style="fill:#1176a2;fill-rule:nonzero;stroke-width:0.14167801"
           d="m 1526.1969,425.03793 c -3.7077,0 -5.2846,2.97523 -5.2846,6.21824 0,2.86473 1.754,5.61754 5.0636,5.61754 2.886,0 4.6626,-1.57688 4.6626,-1.57688 l -0.3995,-2.26402 c 0,0 -1.7979,1.57546 -3.7304,1.57546 -1.754,0 -2.665,-1.42103 -2.7769,-3.21892 h 6.1517 l 0.5341,-0.53413 c -0.045,-1.66471 -0.3344,-5.81729 -4.2206,-5.81729 z m -0.2664,1.88715 c 1.1774,0 1.5542,1.4437 1.6223,2.50911 h -3.7092 c 0.2437,-1.39836 0.8657,-2.50911 2.0869,-2.50911 z" />
        <path
           inkscape:connector-curvature="0"
           id="path132"
           style="fill:#1176a2;fill-rule:nonzero;stroke-width:0.14167801"
           d="m 1542.9418,430.72205 c 0,-3.93015 -2.1988,-5.68412 -5.1075,-5.68412 -3.7757,0 -5.8853,2.77547 -5.8853,6.08507 0,2.79814 1.754,5.75071 5.1302,5.75071 3.7091,0 5.8626,-2.84207 5.8626,-6.15166 z m -8.0615,0.22243 c 0,-2.22009 0.9549,-3.93015 2.5545,-3.93015 1.5981,0 2.553,1.71006 2.553,3.93015 0,2.22151 -0.9549,3.95282 -2.553,3.95282 -1.5996,0 -2.5545,-1.73131 -2.5545,-3.95282 z" />
        <path
           inkscape:connector-curvature="0"
           id="path134"
           style="fill:#1176a2;fill-rule:nonzero;stroke-width:0.14167801"
           d="m 1558.243,421.751 h -2.8647 l 0.3103,2.2881 v 7.66052 l -0.8444,-1.37711 -7.2837,-8.57151 h -2.2201 l 0.3103,2.2881 v 12.547 h 2.7981 l -0.2436,-1.90982 v -7.90705 l 0.8656,1.39978 7.4834,8.41709 h 1.8433 l -0.1545,-1.90982 z" />
        <path
           inkscape:connector-curvature="0"
           id="path136"
           style="fill:#1176a2;fill-rule:nonzero;stroke-width:0.14167801"
           d="m 1571.9221,430.72205 c 0,-3.93015 -2.1989,-5.68412 -5.1075,-5.68412 -3.7758,0 -5.8853,2.77547 -5.8853,6.08507 0,2.79814 1.7553,5.75071 5.1301,5.75071 3.7091,0 5.8627,-2.84207 5.8627,-6.15166 z m -8.0615,0.22243 c 0,-2.22009 0.9549,-3.93015 2.5544,-3.93015 1.5982,0 2.5531,1.71006 2.5531,3.93015 0,2.22151 -0.9549,3.95282 -2.5531,3.95282 -1.5995,0 -2.5544,-1.73131 -2.5544,-3.95282 z" />
        <path
           inkscape:connector-curvature="0"
           id="path138"
           style="fill:#1176a2;fill-rule:nonzero;stroke-width:0.14167801"
           d="m 1583.337,419.55215 -3.0644,0.33295 0.3102,2.24418 v 3.01915 c 0,0 -0.911,-0.1105 -1.2878,-0.1105 -3.4641,0 -5.8627,2.84206 -5.8627,6.15165 0,3.68647 2.0657,5.66287 4.4416,5.66287 0.9989,0 2.3533,-0.60071 3.0419,-1.35585 0.2663,0.8444 0.7551,1.31052 0.7551,1.31052 l 2.7982,-0.31028 c 0,0 -1.1321,-1.33319 -1.1321,-2.66496 z m -4.7532,15.23464 c -1.1986,0 -2.1975,-1.37711 -2.1975,-3.79697 0,-2.22151 1.1547,-3.97549 2.5531,-3.97549 0.8656,0 1.6434,0.13318 1.6434,0.13318 v 6.59511 c -0.6885,0.5993 -1.421,1.04417 -1.999,1.04417 z" />
        <path
           inkscape:connector-curvature="0"
           id="path140"
           style="fill:#1176a2;fill-rule:nonzero;stroke-width:0.14167801"
           d="m 1591.2427,425.03793 c -3.7091,0 -5.286,2.97523 -5.286,6.21824 0,2.86473 1.7554,5.61754 5.0635,5.61754 2.8874,0 4.6641,-1.57688 4.6641,-1.57688 l -0.401,-2.26402 c 0,0 -1.7979,1.57546 -3.7303,1.57546 -1.754,0 -2.665,-1.42103 -2.7755,-3.21892 h 6.1516 l 0.5328,-0.53413 c -0.044,-1.66471 -0.333,-5.81729 -4.2192,-5.81729 z m -0.2664,1.88715 c 1.176,0 1.5542,1.4437 1.6208,2.50911 h -3.7091 c 0.2451,-1.39836 0.8671,-2.50911 2.0883,-2.50911 z" />
        <path
           inkscape:connector-curvature="0"
           id="path4917"
           style="font-style:normal;font-variant:normal;font-weight:normal;font-stretch:normal;font-size:20px;line-height:1.25;font-family:'Noto Sans';-inkscape-font-specification:'Noto Sans';letter-spacing:0px;word-spacing:0px;clip-rule:evenodd;fill:#1176a2;fill-opacity:1;fill-rule:evenodd;stroke:none;stroke-linecap:round;stroke-linejoin:round;stroke-miterlimit:1.41420996"
           d="m 1515.3196,453.69879 q 0,1.9 -1.38,2.96 -1.38,1.06 -3.72,1.06 -1.2,0 -2.22,-0.18 -1.02,-0.18 -1.7,-0.5 v -1.72 q 0.72,0.32 1.78,0.58 1.08,0.26 2.22,0.26 1.58,0 2.4,-0.62 0.82,-0.62 0.82,-1.68 0,-0.7 -0.3,-1.18 -0.3,-0.48 -1.04,-0.88 -0.74,-0.4 -2.02,-0.88 -1.84,-0.66 -2.76,-1.62 -0.92,-0.96 -0.92,-2.62 0,-1.12 0.58,-1.94 0.58,-0.82 1.6,-1.26 1.02,-0.44 2.38,-0.44 1.16,0 2.14,0.22 0.98,0.22 1.8,0.58 l -0.56,1.54 q -0.74,-0.32 -1.62,-0.54 -0.88,-0.22 -1.8,-0.22 -1.34,0 -2.02,0.58 -0.68,0.56 -0.68,1.5 0,0.72 0.3,1.2 0.3,0.48 0.98,0.88 0.68,0.38 1.84,0.8 1.26,0.46 2.12,1 0.88,0.52 1.32,1.26 0.46,0.74 0.46,1.86 z" />
        <path
           inkscape:connector-curvature="0"
           id="path4919"
           style="font-style:normal;font-variant:normal;font-weight:normal;font-stretch:normal;font-size:20px;line-height:1.25;font-family:'Noto Sans';-inkscape-font-specification:'Noto Sans';letter-spacing:0px;word-spacing:0px;clip-rule:evenodd;fill:#1176a2;fill-opacity:1;fill-rule:evenodd;stroke:none;stroke-linecap:round;stroke-linejoin:round;stroke-miterlimit:1.41420996"
           d="m 1526.9553,446.79879 v 10.72 h -1.44 l -0.26,-1.42 h -0.08 q -0.52,0.84 -1.44,1.24 -0.92,0.38 -1.96,0.38 -1.94,0 -2.92,-0.92 -0.98,-0.94 -0.98,-2.98 v -7.02 h 1.78 v 6.9 q 0,2.56 2.38,2.56 1.78,0 2.46,-1 0.7,-1 0.7,-2.88 v -5.58 z" />
        <path
           inkscape:connector-curvature="0"
           id="path4921"
           style="font-style:normal;font-variant:normal;font-weight:normal;font-stretch:normal;font-size:20px;line-height:1.25;font-family:'Noto Sans';-inkscape-font-specification:'Noto Sans';letter-spacing:0px;word-spacing:0px;clip-rule:evenodd;fill:#1176a2;fill-opacity:1;fill-rule:evenodd;stroke:none;stroke-linecap:round;stroke-linejoin:round;stroke-miterlimit:1.41420996"
           d="m 1542.099,446.59879 q 1.82,0 2.72,0.94 0.9,0.94 0.9,3 v 6.98 h -1.74 v -6.9 q 0,-2.54 -2.18,-2.54 -1.56,0 -2.24,0.9 -0.66,0.9 -0.66,2.62 v 5.92 h -1.74 v -6.9 q 0,-2.54 -2.2,-2.54 -1.62,0 -2.24,1 -0.62,1 -0.62,2.88 v 5.56 h -1.76 v -10.72 h 1.42 l 0.26,1.46 h 0.1 q 0.5,-0.84 1.34,-1.24 0.86,-0.42 1.82,-0.42 2.52,0 3.28,1.8 h 0.1 q 0.54,-0.92 1.46,-1.36 0.92,-0.44 1.98,-0.44 z" />
        <path
           inkscape:connector-curvature="0"
           id="path4923"
           style="font-style:normal;font-variant:normal;font-weight:normal;font-stretch:normal;font-size:20px;line-height:1.25;font-family:'Noto Sans';-inkscape-font-specification:'Noto Sans';letter-spacing:0px;word-spacing:0px;clip-rule:evenodd;fill:#1176a2;fill-opacity:1;fill-rule:evenodd;stroke:none;stroke-linecap:round;stroke-linejoin:round;stroke-miterlimit:1.41420996"
           d="m 1560.7709,446.59879 q 1.82,0 2.72,0.94 0.9,0.94 0.9,3 v 6.98 h -1.74 v -6.9 q 0,-2.54 -2.18,-2.54 -1.56,0 -2.24,0.9 -0.66,0.9 -0.66,2.62 v 5.92 h -1.74 v -6.9 q 0,-2.54 -2.2,-2.54 -1.62,0 -2.24,1 -0.62,1 -0.62,2.88 v 5.56 h -1.76 v -10.72 h 1.42 l 0.26,1.46 h 0.1 q 0.5,-0.84 1.34,-1.24 0.86,-0.42 1.82,-0.42 2.52,0 3.28,1.8 h 0.1 q 0.54,-0.92 1.46,-1.36 0.92,-0.44 1.98,-0.44 z" />
        <path
           inkscape:connector-curvature="0"
           id="path4925"
           style="font-style:normal;font-variant:normal;font-weight:normal;font-stretch:normal;font-size:20px;line-height:1.25;font-family:'Noto Sans';-inkscape-font-specification:'Noto Sans';letter-spacing:0px;word-spacing:0px;clip-rule:evenodd;fill:#1176a2;fill-opacity:1;fill-rule:evenodd;stroke:none;stroke-linecap:round;stroke-linejoin:round;stroke-miterlimit:1.41420996"
           d="m 1568.5828,442.77879 q 0.4,0 0.7,0.28 0.32,0.26 0.32,0.84 0,0.58 -0.32,0.86 -0.3,0.26 -0.7,0.26 -0.44,0 -0.74,-0.26 -0.3,-0.28 -0.3,-0.86 0,-0.58 0.3,-0.84 0.3,-0.28 0.74,-0.28 z m 0.86,4.02 v 10.72 h -1.76 v -10.72 z" />
        <path
           inkscape:connector-curvature="0"
           id="path4927"
           style="font-style:normal;font-variant:normal;font-weight:normal;font-stretch:normal;font-size:20px;line-height:1.25;font-family:'Noto Sans';-inkscape-font-specification:'Noto Sans';letter-spacing:0px;word-spacing:0px;clip-rule:evenodd;fill:#1176a2;fill-opacity:1;fill-rule:evenodd;stroke:none;stroke-linecap:round;stroke-linejoin:round;stroke-miterlimit:1.41420996"
           d="m 1576.419,456.27879 q 0.4,0 0.82,-0.06 0.42,-0.06 0.68,-0.16 v 1.34 q -0.28,0.14 -0.8,0.22 -0.52,0.1 -1,0.1 -0.84,0 -1.56,-0.28 -0.7,-0.3 -1.14,-1.02 -0.44,-0.72 -0.44,-2.02 v -6.24 h -1.52 v -0.84 l 1.54,-0.7 0.7,-2.28 h 1.04 v 2.46 h 3.1 v 1.36 h -3.1 v 6.2 q 0,0.98 0.46,1.46 0.48,0.46 1.22,0.46 z" />
      </g>
    </g>
  </g>
</svg>
